<svg width="103" height="50" viewBox="0 0 103 50" fill="none" xmlns="http://www.w3.org/2000/svg">
<g clip-path="url(#clip0_184_3)">
<path d="M18.9689 0.0042282C18.6516 -0.00750708 18.3335 0.00526016 18.0188 0.0416034C16.7041 0.193599 15.4554 0.756395 14.4727 1.64705C13.638 2.40349 13.0214 3.3768 12.6885 4.45002C11.1589 4.45415 9.6448 4.91797 8.37605 5.78183C7.13264 6.62843 6.09811 7.89141 5.73363 9.45112C5.65477 9.78856 5.61083 10.1316 5.59934 10.475C4.52123 10.7182 3.52522 11.2772 2.75901 12.0875C1.76543 13.1382 1.21227 14.5511 1.2293 15.9971C1.23935 16.851 1.44808 17.6906 1.82907 18.4477C1.00472 19.178 0.411041 20.1508 0.149916 21.2304C-0.165764 22.5356 0.0232642 23.9203 0.658811 25.0916C0.294161 25.9275 0.137282 26.8508 0.220596 27.7713C0.342451 29.1177 0.96921 30.3788 1.95629 31.2922C1.53114 32.3193 1.41893 33.4598 1.64126 34.5536C1.89184 35.7863 2.55677 36.9089 3.51832 37.72C4.22033 38.3122 5.05879 38.7187 5.94769 38.9115C5.91027 39.9888 6.16769 41.0671 6.70194 42.0113C7.37798 43.2062 8.46487 44.1342 9.75026 44.6164C10.582 44.9284 11.4711 45.0398 12.3432 44.9607C12.7023 45.9294 13.2776 46.8136 14.0254 47.5334C15.0239 48.4947 16.3022 49.1365 17.6694 49.3641C19.0159 49.5881 20.4395 49.4046 21.679 48.7512C22.925 48.0943 23.9259 46.9824 24.377 45.611C24.7374 44.515 24.7088 43.4047 24.5779 42.398C24.4475 41.3956 24.2203 40.4809 24.0993 39.6213C23.7133 36.8804 24.2541 33.9588 24.4537 30.9004C24.7416 26.4906 24.2348 22.1638 24.1902 17.9327C24.163 15.3612 24.2974 12.757 24.3638 10.1256C24.4253 9.99935 24.4591 9.86138 24.4627 9.72099C24.4664 9.58061 24.4399 9.44106 24.385 9.31178C24.4057 8.18564 24.4116 7.05515 24.377 5.91813C24.3573 5.2742 24.3301 4.55037 24.1064 3.79572C23.7253 2.51072 22.8391 1.44666 21.7103 0.786779C20.868 0.294373 19.921 0.0394887 18.9689 0.00425187V0.0042282ZM30.7876 0.214248C29.6777 0.206442 28.5616 0.493895 27.5979 1.09977C26.4911 1.79571 25.6392 2.88681 25.2998 4.18343C25.1005 4.94491 25.0967 5.66969 25.0979 6.31392C25.1 7.45708 25.1424 8.59232 25.1999 9.72271C25.1526 9.85021 25.1323 9.98614 25.1403 10.1219C25.1483 10.2576 25.1844 10.3902 25.2463 10.5113C25.3977 13.1418 25.6166 15.7429 25.6724 18.3164C25.7643 22.5467 25.397 26.8869 25.8269 31.2851C26.1251 34.3355 26.7604 37.2379 26.463 39.9899C26.3698 40.8528 26.1713 41.7746 26.0733 42.7807C25.9749 43.791 25.9826 44.9028 26.3782 45.9865C26.8733 47.3428 27.9096 48.4216 29.1761 49.0379C30.436 49.651 31.8643 49.789 33.2029 49.5216C34.562 49.25 35.8193 48.5658 36.7863 47.5728C37.5103 46.8294 38.0569 45.928 38.3847 44.9486C39.2591 44.9996 40.1441 44.8592 40.9655 44.5204C42.2347 43.9971 43.2899 43.0335 43.927 41.8174C44.4307 40.8561 44.6545 39.7699 44.5823 38.6944C45.4643 38.4731 46.2889 38.0405 46.9713 37.4262C47.9062 36.5845 48.5347 35.4414 48.7454 34.2012C48.9323 33.101 48.7824 31.9647 48.3243 30.9519C49.2818 30.007 49.8675 28.7265 49.9459 27.3765C49.9995 26.4541 49.8128 25.5366 49.4219 24.7129C50.0199 23.5215 50.1643 22.1315 49.8066 20.8366C49.5106 19.7656 48.8865 18.8116 48.0386 18.1084C48.3948 17.3396 48.5761 16.4943 48.5586 15.6406C48.5289 14.1949 47.9306 12.8006 46.9037 11.7825C46.1118 10.9975 45.0981 10.4705 44.0128 10.2619C43.9904 9.91899 43.9359 9.57782 43.8462 9.2431C43.4316 7.69597 42.3557 6.4677 41.0857 5.66165C39.7897 4.83916 38.2618 4.42429 36.7328 4.46918C36.3653 3.40728 35.7173 2.45381 34.8588 1.72478C33.8478 0.866288 32.5811 0.344963 31.2622 0.235452C31.1043 0.222321 30.9462 0.215394 30.7876 0.214256V0.214248Z" fill="#FA899B"/>
<path d="M18.9689 0.0042282C18.6516 -0.00750708 18.3335 0.00526015 18.0188 0.0416034C16.7041 0.193599 15.4554 0.756395 14.4727 1.64705C13.638 2.40349 13.0214 3.3768 12.6885 4.45002C11.1589 4.45415 9.6448 4.91797 8.37605 5.78183C7.13264 6.62843 6.09811 7.89141 5.73363 9.45112C5.65477 9.78856 5.61083 10.1316 5.59934 10.475C4.52123 10.7182 3.52522 11.2772 2.75901 12.0875C1.76543 13.1382 1.21227 14.5511 1.2293 15.9971C1.23935 16.851 1.44808 17.6906 1.82907 18.4477C1.00472 19.178 0.411041 20.1508 0.149916 21.2304C-0.165764 22.5356 0.0232643 23.9203 0.658812 25.0916C0.294161 25.9275 0.137283 26.8508 0.220596 27.7713C0.342451 29.1177 0.96921 30.3788 1.95629 31.2922C1.53114 32.3193 1.41893 33.4598 1.64126 34.5536C1.89184 35.7863 2.55677 36.9089 3.51832 37.72C4.22033 38.3122 5.05879 38.7187 5.94769 38.9115C5.91027 39.9888 6.16769 41.0671 6.70194 42.0113C7.37798 43.2062 8.46487 44.1342 9.75027 44.6164C10.582 44.9284 11.4711 45.0398 12.3432 44.9607C12.7023 45.9294 13.2776 46.8136 14.0254 47.5334C15.0239 48.4947 16.3022 49.1365 17.6694 49.3641C19.0159 49.5881 20.4395 49.4046 21.679 48.7512C22.925 48.0943 23.9259 46.9824 24.377 45.611C24.7374 44.515 24.7088 43.4047 24.5779 42.398C24.4475 41.3956 24.2203 40.4809 24.0993 39.6213C23.7133 36.8804 24.2541 33.9588 24.4537 30.9004C24.7416 26.4906 24.2348 22.1638 24.1902 17.9327C24.163 15.3612 24.2974 12.757 24.3638 10.1256C24.4253 9.99935 24.4591 9.86138 24.4627 9.72099C24.4664 9.58061 24.4399 9.44106 24.385 9.31178C24.4057 8.18564 24.4116 7.05515 24.377 5.91813C24.3573 5.2742 24.3301 4.55037 24.1064 3.79572C23.7253 2.51072 22.8391 1.44666 21.7103 0.786779C20.868 0.294373 19.921 0.0394651 18.9689 0.0042282ZM30.7876 0.214248C29.6777 0.206442 28.5616 0.493895 27.5979 1.09977C26.4911 1.79571 25.6392 2.88681 25.2998 4.18343C25.1005 4.94491 25.0967 5.66969 25.0979 6.31392C25.1 7.45708 25.1424 8.59232 25.1999 9.72271C25.1526 9.85021 25.1323 9.98614 25.1403 10.1219C25.1483 10.2576 25.1844 10.3902 25.2463 10.5113C25.3977 13.1418 25.6166 15.7429 25.6724 18.3164C25.7643 22.5467 25.397 26.8869 25.8269 31.2851C26.1251 34.3355 26.7604 37.2379 26.463 39.9899C26.3698 40.8528 26.1713 41.7746 26.0733 42.7807C25.9749 43.791 25.9826 44.9028 26.3782 45.9865C26.8733 47.3428 27.9096 48.4216 29.1761 49.0379C30.436 49.651 31.8643 49.789 33.2029 49.5216C34.562 49.25 35.8193 48.5658 36.7863 47.5728C37.5103 46.8294 38.0569 45.928 38.3847 44.9486C39.2591 44.9996 40.1441 44.8592 40.9655 44.5204C42.2347 43.9971 43.2899 43.0335 43.927 41.8174C44.4307 40.8561 44.6545 39.7699 44.5823 38.6944C45.4643 38.4731 46.2889 38.0405 46.9713 37.4262C47.9062 36.5845 48.5347 35.4414 48.7454 34.2012C48.9323 33.101 48.7824 31.9647 48.3243 30.9519C49.2818 30.007 49.8675 28.7265 49.9459 27.3765C49.9995 26.4541 49.8128 25.5366 49.4219 24.7129C50.0199 23.5215 50.1643 22.1315 49.8066 20.8366C49.5106 19.7656 48.8865 18.8116 48.0386 18.1084C48.3948 17.3396 48.5761 16.4943 48.5586 15.6406C48.5289 14.1949 47.9306 12.8006 46.9037 11.7825C46.1118 10.9975 45.0981 10.4705 44.0128 10.2619C43.9904 9.91899 43.9359 9.57782 43.8462 9.2431C43.4316 7.69597 42.3557 6.4677 41.0857 5.66165C39.7897 4.83916 38.2618 4.42429 36.7328 4.46918C36.3653 3.40728 35.7173 2.45381 34.8588 1.72478C33.8478 0.866288 32.5811 0.344963 31.2622 0.235452C31.1043 0.222321 30.9462 0.215386 30.7876 0.214248ZM18.8932 1.96913C19.5416 1.99451 20.1804 2.16832 20.7188 2.48307C21.4309 2.89941 21.9971 3.59466 22.2222 4.35407C22.3572 4.80936 22.3943 5.3612 22.4131 5.9787C22.4366 6.75115 22.4386 7.52707 22.4323 8.30508C21.9817 8.22622 21.52 8.20825 21.0611 8.2556C20.0634 8.35853 19.1149 8.762 18.35 9.41071C17.5478 10.091 16.9784 11.0138 16.7304 12.036C16.4825 13.0581 16.5664 14.1393 16.9677 15.1116C17.0671 15.3523 17.258 15.5436 17.4985 15.6436C17.739 15.7436 18.0093 15.744 18.25 15.6447C18.3693 15.5955 18.4778 15.5232 18.5691 15.4321C18.6605 15.3409 18.733 15.2327 18.7825 15.1135C18.832 14.9943 18.8576 14.8665 18.8577 14.7375C18.8578 14.6084 18.8325 14.4806 18.7832 14.3613C18.5441 13.7822 18.4921 13.1083 18.6398 12.4994C18.7875 11.8906 19.1424 11.3144 19.6202 10.9091C20.0765 10.5221 20.6679 10.2708 21.263 10.2094C21.6371 10.1708 22.0241 10.2068 22.3909 10.3094C22.322 12.8298 22.198 15.3756 22.2253 17.9539C22.2642 21.6445 22.6182 25.267 22.5645 28.8184C22.5109 28.9013 22.47 28.9919 22.4434 29.087C22.2823 29.6992 21.9137 30.2744 21.4246 30.6763C20.9354 31.0781 20.3005 31.3277 19.6687 31.3669C19.108 31.4018 18.525 31.2748 18.0299 31.0095C17.5348 30.7441 17.1067 30.3294 16.8253 29.8433C16.6949 29.6178 16.4802 29.4534 16.2286 29.3862C15.9769 29.3189 15.7089 29.3544 15.4834 29.4848C15.258 29.6152 15.0935 29.8299 15.0263 30.0815C14.9591 30.3332 14.9946 30.6012 15.125 30.8267C15.5927 31.6346 16.2792 32.3002 17.102 32.7411C17.9248 33.1821 18.8591 33.3857 19.7908 33.3278C20.7079 33.2708 21.5926 32.9613 22.3444 32.4402C22.1083 34.836 21.7921 37.3279 22.1536 39.895C22.2936 40.8891 22.5191 41.7975 22.6302 42.6515C22.7407 43.5012 22.7354 44.3147 22.511 44.997C22.2353 45.8353 21.574 46.5855 20.7622 47.0134C19.9439 47.4448 18.9407 47.5842 17.9925 47.4264C17.0252 47.2654 16.094 46.798 15.3875 46.1178C14.9038 45.6522 14.5187 45.0769 14.2586 44.4528C14.396 44.39 14.5318 44.3246 14.6645 44.2509C16.1604 43.4194 17.233 41.9488 17.5685 40.2706C17.6194 40.0152 17.5668 39.7501 17.4223 39.5336C17.2779 39.317 17.0533 39.1666 16.7981 39.1155C16.6716 39.0901 16.5413 39.0899 16.4147 39.1149C16.2882 39.1399 16.1678 39.1896 16.0604 39.2612C15.9531 39.3327 15.8608 39.4247 15.789 39.5319C15.7172 39.6391 15.6672 39.7594 15.6419 39.8859C15.4241 40.9757 14.6808 41.9944 13.7093 42.5343C13.5043 42.6483 13.2859 42.7412 13.0601 42.815C12.9812 42.8006 12.9008 42.7958 12.8208 42.8009C12.713 42.8335 12.6115 42.8843 12.5209 42.9513C11.8242 43.0761 11.09 43.0215 10.4399 42.7776C9.59835 42.462 8.855 41.8263 8.4124 41.044C8.06375 40.4278 7.8895 39.6982 7.91057 38.9842C9.0517 38.8223 10.1282 38.3093 10.972 37.514C11.1616 37.3354 11.2725 37.0888 11.2802 36.8284C11.288 36.5681 11.192 36.3153 11.0134 36.1257C10.8346 35.9362 10.588 35.8256 10.3276 35.818C10.0672 35.8104 9.81454 35.9066 9.62506 36.0853C8.98982 36.684 8.10259 37.0498 7.23002 37.0738C6.35746 37.0978 5.45273 36.7814 4.78551 36.2186C4.17105 35.7003 3.7259 34.9506 3.56578 34.1628C3.44595 33.5733 3.48108 32.9408 3.65867 32.3595C4.53837 32.7056 5.50299 32.8245 6.45053 32.6866C6.57824 32.6681 6.70104 32.6246 6.81193 32.5586C6.92282 32.4926 7.01962 32.4054 7.09679 32.3019C7.17396 32.1985 7.23 32.0809 7.26169 31.9558C7.29339 31.8307 7.30013 31.7006 7.28152 31.5729C7.24387 31.3151 7.10539 31.0829 6.89653 30.9273C6.68768 30.7716 6.42555 30.7053 6.16781 30.7429C5.24313 30.8775 4.22867 30.6058 3.4951 30.027C2.76152 29.4482 2.26165 28.5252 2.17742 27.5946C2.11787 26.9367 2.26422 26.245 2.57323 25.6479C2.62624 25.5783 2.6697 25.5019 2.70247 25.4207C2.80913 25.2472 2.92935 25.0833 3.06395 24.934C3.69851 24.2305 4.67219 23.79 5.61953 23.7779C5.87994 23.7745 6.12834 23.6678 6.31011 23.4813C6.49188 23.2948 6.59215 23.0437 6.58886 22.7833C6.58545 22.5229 6.47877 22.2745 6.29226 22.0928C6.10576 21.911 5.8547 21.8107 5.59429 21.814C4.28389 21.8307 3.01736 22.3269 2.04212 23.1882C1.94129 22.6913 1.94278 22.1735 2.05928 21.6918C2.20947 21.0709 2.55302 20.482 3.01548 20.0278C3.69453 20.6582 4.5252 21.116 5.42869 21.3485C5.55367 21.3807 5.68377 21.388 5.81155 21.3699C5.93933 21.3518 6.0623 21.3087 6.17342 21.2431C6.28454 21.1774 6.38163 21.0906 6.45915 20.9874C6.53667 20.8842 6.5931 20.7667 6.6252 20.6417C6.68995 20.3895 6.65187 20.1218 6.51932 19.8976C6.38678 19.6735 6.17064 19.5111 5.91841 19.4462C5.15968 19.251 4.45129 18.7883 3.96764 18.172C3.48399 17.5556 3.20342 16.7572 3.1942 15.9738C3.18338 15.0549 3.55433 14.1051 4.18574 13.4374C4.64133 12.9557 5.25186 12.6014 5.90124 12.4257C5.96377 12.6019 6.03483 12.7752 6.11631 12.9447C6.63736 14.0284 7.52083 14.908 8.60626 15.4256C8.72268 15.4811 8.8489 15.5132 8.97772 15.52C9.10655 15.5268 9.23544 15.5081 9.35705 15.4651C9.47866 15.422 9.5906 15.3555 9.68648 15.2692C9.78236 15.1829 9.86031 15.0785 9.91586 14.9621C9.97139 14.8456 10.0034 14.7193 10.0101 14.5905C10.0168 14.4616 9.9981 14.3327 9.95496 14.2111C9.91183 14.0894 9.84516 13.9775 9.75875 13.8817C9.67235 13.7858 9.5679 13.708 9.45139 13.6525C8.78119 13.3329 8.20907 12.7627 7.88734 12.0935C7.56562 11.4243 7.47707 10.6204 7.64602 9.89738C7.87286 8.92669 8.57714 8.02129 9.48168 7.40541C10.3376 6.82266 11.3714 6.48027 12.4109 6.42296C12.4229 7.02844 12.5193 7.63177 12.7057 8.21116C13.0355 9.23661 13.6299 10.1652 14.4222 10.895C14.6137 11.0713 14.8674 11.1645 15.1276 11.1539C15.3877 11.1433 15.633 11.0298 15.8096 10.8384C15.897 10.7436 15.965 10.6324 16.0095 10.5113C16.054 10.3902 16.0742 10.2615 16.0689 10.1325C16.0637 10.0036 16.0331 9.87698 15.9789 9.75988C15.9247 9.64278 15.8479 9.53752 15.753 9.45009C15.2142 8.95384 14.801 8.3067 14.5767 7.60939C14.3524 6.91207 14.3111 6.14672 14.4596 5.42942C14.6421 4.54732 15.1228 3.70885 15.7924 3.10203C16.4623 2.49489 17.344 2.09753 18.245 1.99336C18.4598 1.96855 18.6771 1.96065 18.8932 1.96913ZM30.4514 2.19026C30.6671 2.1748 30.8841 2.17537 31.0996 2.19336C32.0035 2.26841 32.8984 2.63705 33.5876 3.22225C34.2764 3.80717 34.7832 4.62947 34.9941 5.50521C35.1656 6.21736 35.1493 6.98403 34.9477 7.68822C34.746 8.39241 34.3544 9.0519 33.8319 9.56528C33.7398 9.65563 33.6664 9.76324 33.6159 9.88196C33.5654 10.0007 33.5387 10.1282 33.5375 10.2572C33.5363 10.3863 33.5605 10.5143 33.6088 10.6339C33.657 10.7536 33.7284 10.8626 33.8188 10.9546C33.9092 11.0467 34.0169 11.12 34.1357 11.1704C34.2544 11.2209 34.382 11.2474 34.511 11.2485C34.64 11.2496 34.768 11.2253 34.8876 11.177C35.0072 11.1286 35.1162 11.0572 35.2082 10.9667C35.9765 10.2118 36.5402 9.26495 36.8368 8.2294C37.0043 7.64462 37.0813 7.0384 37.0741 6.43313C38.115 6.45691 39.1594 6.76486 40.0336 7.31965C40.9575 7.90603 41.69 8.78919 41.948 9.75204C42.1402 10.4692 42.0783 11.275 41.7784 11.9542C41.4784 12.6334 40.9243 13.2217 40.2648 13.5627C40.0334 13.6824 39.8591 13.8891 39.7801 14.1374C39.7012 14.3856 39.7241 14.6551 39.8438 14.8864C39.9029 15.0011 39.9841 15.1029 40.0827 15.1862C40.1813 15.2695 40.2953 15.3325 40.4182 15.3717C40.5411 15.4109 40.6706 15.4255 40.7991 15.4146C40.9277 15.4038 41.0529 15.3677 41.1675 15.3085C42.2357 14.7562 43.0898 13.8479 43.5757 12.7479C43.6516 12.5758 43.7167 12.4 43.7736 12.2218C44.4282 12.3763 45.0493 12.711 45.5204 13.178C46.173 13.825 46.5759 14.7623 46.5947 15.6811C46.6107 16.4643 46.3554 17.2708 45.8919 17.9024C45.4284 18.5341 44.7346 19.0197 43.9826 19.2393C43.7326 19.3124 43.5219 19.4817 43.3968 19.71C43.2716 19.9383 43.2423 20.207 43.3151 20.457C43.3513 20.5809 43.4115 20.6964 43.4924 20.797C43.5732 20.8976 43.6731 20.9813 43.7862 21.0432C43.8994 21.1052 44.0237 21.1443 44.152 21.1582C44.2803 21.1722 44.41 21.1607 44.5339 21.1244C45.429 20.8631 46.2444 20.3795 46.9027 19.728C47.3793 20.1671 47.7423 20.744 47.9124 21.3597C48.0442 21.837 48.0624 22.3544 47.978 22.8541C46.9755 22.0251 45.6934 21.5704 44.3834 21.596C44.1232 21.6012 43.8757 21.7096 43.6952 21.8972C43.5148 22.0848 43.4162 22.3364 43.4212 22.5966C43.4262 22.857 43.5344 23.1048 43.722 23.2854C43.9097 23.4661 44.1614 23.5648 44.4218 23.5599C45.369 23.5414 46.3558 23.9495 47.0127 24.6322C47.1564 24.7815 47.2856 24.947 47.4004 25.1229C47.4291 25.1817 47.4636 25.2375 47.5034 25.2895C47.8468 25.885 48.0242 26.5877 47.9851 27.2625C47.9309 28.1953 47.4607 29.1341 46.7462 29.7363C46.0316 30.3384 45.0272 30.6427 44.0987 30.538C43.9705 30.5235 43.8406 30.5344 43.7166 30.5701C43.5926 30.6058 43.4768 30.6656 43.376 30.746C43.2751 30.8265 43.191 30.926 43.1286 31.039C43.0662 31.1519 43.0266 31.2761 43.0122 31.4043C42.9832 31.6631 43.0582 31.9229 43.2207 32.1264C43.3831 32.33 43.6198 32.4607 43.8786 32.4898C44.8297 32.597 45.7895 32.4476 46.6573 32.0738C46.8534 32.6489 46.9095 33.279 46.8088 33.8721C46.6741 34.6646 46.2541 35.4283 45.6567 35.9662C45.008 36.5503 44.1133 36.8961 43.2404 36.9002C42.3676 36.9043 41.4703 36.5673 40.8161 35.9894C40.7194 35.9039 40.6068 35.8383 40.4847 35.7963C40.3627 35.7543 40.2335 35.7368 40.1046 35.7448C39.9758 35.7527 39.8498 35.786 39.7338 35.8427C39.6178 35.8994 39.5142 35.9785 39.4288 36.0753C39.2563 36.2705 39.1685 36.5262 39.1846 36.7862C39.2007 37.0462 39.3194 37.2891 39.5146 37.4616C40.3835 38.2291 41.4759 38.705 42.6215 38.8298C42.6661 39.5431 42.5161 40.2781 42.1873 40.9057C41.7702 41.7019 41.0473 42.3614 40.2163 42.704C39.5957 42.96 38.8902 43.0406 38.2111 42.9534C38.0982 42.8784 37.971 42.8275 37.8375 42.804C37.7571 42.8016 37.6767 42.809 37.5982 42.8262C37.3704 42.7597 37.1492 42.6739 36.9408 42.5667C35.9525 42.0584 35.1763 41.0641 34.9234 39.9818C34.8642 39.7283 34.7066 39.5087 34.4855 39.3712C34.2644 39.2338 33.9977 39.1897 33.7441 39.2488C33.6184 39.2781 33.4998 39.332 33.3949 39.4072C33.2901 39.4824 33.2011 39.5775 33.133 39.6871C33.0649 39.7967 33.0191 39.9187 32.9982 40.046C32.9773 40.1733 32.9816 40.3035 33.011 40.4292C33.4005 42.0957 34.5202 43.5307 36.0422 44.3135C36.1767 44.3827 36.3143 44.4442 36.4531 44.5023C36.2133 45.1344 35.8471 45.7218 35.3788 46.2027C34.6946 46.9053 33.7799 47.403 32.8182 47.5951C31.8756 47.7834 30.8682 47.6757 30.0364 47.271C29.2112 46.8694 28.5266 46.1411 28.224 45.3121C27.9777 44.6374 27.946 43.8245 28.0291 42.9716C28.1126 42.1146 28.308 41.1991 28.4158 40.201C28.6943 37.6237 28.2979 35.1441 27.9847 32.7574C28.7529 33.2535 29.6474 33.5337 30.5655 33.5611C31.4986 33.5889 32.426 33.3549 33.2342 32.8876C34.0423 32.4203 34.7072 31.7342 35.1486 30.9116C35.2717 30.6821 35.2987 30.4131 35.2235 30.1637C35.1483 29.9143 34.9772 29.705 34.7477 29.5818C34.634 29.5207 34.5094 29.4826 34.381 29.4696C34.2526 29.4567 34.1228 29.4692 33.9993 29.5064C33.8757 29.5436 33.7606 29.6049 33.6607 29.6866C33.5608 29.7683 33.4779 29.8689 33.4169 29.9827C33.1513 30.4776 32.737 30.9061 32.2507 31.1873C31.7644 31.4684 31.1855 31.6139 30.6241 31.5972C29.9913 31.5783 29.3488 31.349 28.847 30.9631C28.3452 30.5772 27.9585 30.0148 27.7777 29.4081C27.7481 29.3143 27.7045 29.2255 27.6484 29.1446C27.4801 25.5966 27.7164 21.9642 27.6364 18.274C27.5804 15.6962 27.3744 13.1556 27.2244 10.6386C27.5877 10.5241 27.9741 10.4758 28.3492 10.5023C28.946 10.5445 29.5437 10.7774 30.0122 11.1495C30.5029 11.5391 30.8769 12.1027 31.0441 12.7065C31.2114 13.3103 31.1816 13.9859 30.9613 14.5724C30.8696 14.8163 30.8785 15.0865 30.9861 15.3238C31.0936 15.5611 31.291 15.7459 31.5349 15.8376C31.6556 15.883 31.7842 15.9041 31.9132 15.8998C32.0421 15.8955 32.169 15.8658 32.2865 15.8125C32.404 15.7591 32.5098 15.6831 32.5979 15.5889C32.686 15.4946 32.7547 15.3839 32.8 15.2631C33.1698 14.2784 33.2181 13.1961 32.9373 12.1824C32.6566 11.1688 32.0577 10.2648 31.234 9.6107C30.4485 8.987 29.488 8.61312 28.4875 8.54242C28.0273 8.50991 27.5662 8.5427 27.1184 8.63633C27.087 7.85906 27.0642 7.08363 27.0628 6.31097C27.0618 5.69318 27.0809 5.14069 27.2012 4.68128C27.4017 3.91501 27.9447 3.20192 28.643 2.76283C29.171 2.43088 29.8042 2.23662 30.4514 2.19026ZM14.3091 13.0972C14.1378 13.0778 13.9643 13.104 13.8063 13.1729C13.5677 13.2774 13.3804 13.4723 13.2855 13.7149C13.1907 13.9574 13.196 14.2277 13.3004 14.4663C13.529 14.9895 13.6068 15.5923 13.5195 16.1566C13.4322 16.7209 13.1756 17.2718 12.7996 17.7015C12.445 18.1067 11.97 18.4211 11.4587 18.59C10.9474 18.759 10.3795 18.789 9.85326 18.6748C9.72715 18.6475 9.5969 18.6452 9.46993 18.6682C9.34296 18.6913 9.22177 18.739 9.11329 18.8089C9.0048 18.8788 8.91113 18.9693 8.83765 19.0754C8.76417 19.1814 8.7123 19.3009 8.68502 19.4271C8.62975 19.6816 8.67785 19.9477 8.81873 20.1667C8.9596 20.3858 9.18172 20.54 9.43624 20.5953C10.3113 20.7852 11.2254 20.7369 12.0756 20.456C12.9258 20.175 13.6881 19.6687 14.2778 18.9949C14.3453 18.9178 14.4093 18.8384 14.4717 18.7576C14.8913 18.7364 15.3199 18.8039 15.7076 18.9575C16.1958 19.1511 16.6402 19.488 16.9586 19.9057C17.286 20.3351 17.4947 20.8695 17.5452 21.4071C17.5958 21.9447 17.4909 22.5094 17.2494 22.9924C17.1329 23.2253 17.1138 23.495 17.1962 23.7422C17.2785 23.9893 17.4557 24.1935 17.6886 24.31C17.9216 24.4265 18.1913 24.4456 18.4384 24.3633C18.6855 24.2809 18.8898 24.1038 19.0063 23.8708C19.4152 23.0531 19.5867 22.1335 19.5011 21.2233C19.4154 20.3131 19.0749 19.4413 18.5206 18.7142C17.9819 18.0075 17.2576 17.4584 16.4315 17.131C16.0929 16.9968 15.7417 16.903 15.3845 16.8472C15.415 16.7186 15.4409 16.5887 15.4612 16.4575C15.6065 15.5179 15.4804 14.551 15.0997 13.6798C14.9955 13.4413 14.8008 13.2539 14.5585 13.1588C14.4784 13.1274 14.3946 13.1067 14.3091 13.0972ZM35.6484 13.1608C35.4336 13.1354 35.2164 13.1816 35.0306 13.2922C34.8447 13.4028 34.7006 13.5717 34.6205 13.7727C34.2681 14.6557 34.1733 15.625 34.3489 16.5595C34.3734 16.6901 34.403 16.8194 34.4377 16.9472C34.0826 17.0146 33.7346 17.1203 33.4008 17.2653C32.5856 17.6192 31.8788 18.1904 31.3632 18.9141C30.8327 19.6587 30.5207 20.5411 30.4645 21.4536C30.4083 22.366 30.61 23.2798 31.0451 24.0839C31.1065 24.1974 31.1896 24.2977 31.2897 24.3791C31.3899 24.4605 31.5051 24.5214 31.6288 24.5583C31.7525 24.5951 31.8822 24.6072 32.0106 24.5939C32.1389 24.5806 32.2634 24.5421 32.3769 24.4807C32.4904 24.4192 32.5906 24.336 32.6719 24.2359C32.7532 24.1357 32.814 24.0204 32.8507 23.8968C32.8875 23.7731 32.8995 23.6434 32.8861 23.5151C32.8727 23.3867 32.8342 23.2623 32.7727 23.1489C32.5158 22.674 32.3922 22.1137 32.4254 21.5747C32.4586 21.0358 32.6502 20.4938 32.9636 20.0541C33.2683 19.6263 33.7015 19.2758 34.1833 19.0666C34.5655 18.9006 34.9913 18.8196 35.4111 18.8273C35.4762 18.9062 35.5431 18.9836 35.613 19.0585C36.2242 19.713 37.0028 20.1935 37.8617 20.4469C38.7205 20.7002 39.6356 20.7194 40.5041 20.5014C40.6293 20.47 40.7471 20.4143 40.8507 20.3374C40.9544 20.2605 41.0419 20.1639 41.1082 20.0531C41.1745 19.9424 41.2183 19.8196 41.2371 19.692C41.256 19.5643 41.2495 19.4341 41.218 19.3089C41.1865 19.1838 41.1307 19.0661 41.0537 18.9626C40.9767 18.859 40.8801 18.7717 40.7694 18.7055C40.6587 18.6393 40.536 18.5955 40.4083 18.5768C40.2807 18.558 40.1506 18.5646 40.0255 18.5961C39.5032 18.7272 38.9345 18.7151 38.418 18.5628C37.9015 18.4104 37.4164 18.1112 37.0489 17.7177C36.6592 17.3003 36.3849 16.7582 36.2795 16.197C36.174 15.6359 36.2334 15.031 36.445 14.5007C36.5416 14.2587 36.538 13.9884 36.4352 13.749C36.3324 13.5097 36.1387 13.321 35.8968 13.2244C35.8171 13.1924 35.7336 13.171 35.6484 13.1608ZM13.8224 21.8645C13.6501 21.8566 13.4788 21.8942 13.3257 21.9736C13.0945 22.0934 12.9203 22.3002 12.8416 22.5485C12.7628 22.7967 12.7858 23.066 12.9056 23.2973C13.1607 23.7895 13.2806 24.3648 13.2429 24.9179C13.2051 25.471 13.0081 26.0249 12.6885 26.4779C12.3611 26.9419 11.8906 27.3197 11.3668 27.5391C10.9116 27.7297 10.3991 27.8086 9.90475 27.7653C9.38295 27.2648 8.74882 26.8912 8.05395 26.6808C7.64101 26.5559 7.2147 26.491 6.78676 26.485C6.35882 26.479 5.92979 26.5322 5.51351 26.6455C5.26221 26.714 5.04838 26.8794 4.91906 27.1055C4.78973 27.3316 4.7555 27.5998 4.82388 27.8511C4.89233 28.1024 5.05779 28.3162 5.28388 28.4456C5.50996 28.5749 5.77815 28.6091 6.02947 28.5407C6.49939 28.4128 7.01934 28.4209 7.48548 28.5619C7.95162 28.703 8.38817 28.9844 8.70824 29.3515C9.10522 29.8068 9.34484 30.4288 9.35648 31.0327C9.36811 31.6367 9.15201 32.2668 8.77286 32.7371C8.6919 32.8375 8.63152 32.9529 8.59516 33.0767C8.5588 33.2005 8.54718 33.3302 8.56097 33.4585C8.57475 33.5867 8.61366 33.711 8.67549 33.8243C8.73731 33.9375 8.82084 34.0374 8.92129 34.1184C9.02173 34.1993 9.13713 34.2597 9.26091 34.2961C9.38469 34.3324 9.51441 34.3441 9.64268 34.3303C9.77095 34.3165 9.89524 34.2776 10.0085 34.2158C10.1217 34.1539 10.2216 34.0704 10.3026 33.97C10.9796 33.1302 11.3411 32.0728 11.3204 30.9943C11.3116 30.5375 11.2332 30.0876 11.0932 29.6585C11.4458 29.5935 11.792 29.491 12.1251 29.3515C12.9956 28.987 13.7499 28.3819 14.294 27.6108C14.8248 26.8584 15.14 25.9708 15.2027 25.0522C15.2654 24.1336 15.073 23.2111 14.6494 22.3936C14.5297 22.1623 14.3231 21.9879 14.0749 21.9089C13.993 21.8832 13.9082 21.8682 13.8224 21.8645ZM36.1613 21.911C36.0755 21.9177 35.991 21.9357 35.9099 21.9645C35.6645 22.0515 35.4637 22.2323 35.3515 22.4673C34.9545 23.2981 34.7927 24.226 34.885 25.1421C34.9774 26.0582 35.3208 26.9345 35.8756 27.6694C36.4442 28.4226 37.2172 29.0032 38.099 29.3394C38.4363 29.4681 38.7854 29.5594 39.14 29.6131C39.0137 30.0466 38.9503 30.499 38.9562 30.956C38.9702 32.0346 39.3661 33.0798 40.0699 33.8973C40.154 33.9951 40.2566 34.0754 40.3718 34.1335C40.4869 34.1917 40.6124 34.2266 40.741 34.2362C40.8697 34.2459 40.999 34.2301 41.1215 34.1898C41.2441 34.1495 41.3575 34.0854 41.4552 34.0013C41.553 33.9171 41.6332 33.8145 41.6912 33.6993C41.7493 33.5841 41.7841 33.4586 41.7937 33.33C41.8032 33.2013 41.7874 33.0721 41.747 32.9495C41.7066 32.827 41.6424 32.7137 41.5582 32.616C41.1641 32.1582 40.929 31.5347 40.9211 30.9307C40.9132 30.3267 41.1327 29.6973 41.5148 29.2294C41.8229 28.8522 42.25 28.5565 42.7113 28.4004C43.1727 28.2444 43.6915 28.22 44.1653 28.3328C44.2908 28.3627 44.421 28.3676 44.5484 28.3472C44.6758 28.3268 44.7979 28.2815 44.9078 28.2139C45.0177 28.1463 45.1132 28.0577 45.1889 27.9532C45.2645 27.8487 45.3188 27.7303 45.3487 27.6048C45.4088 27.3513 45.3658 27.0843 45.229 26.8626C45.0923 26.6409 44.8731 26.4825 44.6197 26.4224C44.2 26.3225 43.7699 26.2824 43.3424 26.3022C42.9149 26.322 42.49 26.4013 42.0813 26.5395C41.3941 26.772 40.7728 27.1652 40.2678 27.6815C39.775 27.7409 39.2601 27.6799 38.7987 27.5038C38.2681 27.3014 37.7858 26.9392 37.4436 26.486C37.1096 26.0435 36.8944 25.4968 36.8388 24.9452C36.7833 24.3936 36.8845 23.8147 37.1236 23.3145C37.1793 23.1981 37.2116 23.0718 37.2185 22.9429C37.2255 22.814 37.2069 22.6851 37.164 22.5633C37.121 22.4416 37.0545 22.3296 36.9682 22.2336C36.8819 22.1376 36.7776 22.0595 36.6611 22.0039C36.5056 21.9296 36.3332 21.8976 36.1613 21.911ZM16.4083 34.7273C16.2443 34.7262 16.0796 34.7332 15.9156 34.7495C15.0407 34.8364 14.2061 35.1719 13.5145 35.7148C13.413 35.7944 13.3281 35.8932 13.2648 36.0056C13.2015 36.118 13.1609 36.2418 13.1455 36.3699C13.13 36.498 13.1399 36.6279 13.1746 36.7521C13.2094 36.8764 13.2682 36.9926 13.3479 37.0941C13.4275 37.1956 13.5263 37.2804 13.6387 37.3437C13.7511 37.407 13.8749 37.4476 14.003 37.4631C14.1311 37.4785 14.261 37.4686 14.3852 37.4339C14.5095 37.3992 14.6256 37.3403 14.7271 37.2607C15.1194 36.9528 15.6132 36.7536 16.1094 36.7043C16.6057 36.655 17.1294 36.7532 17.5745 36.9779C18.0675 37.2268 18.4924 37.6479 18.7448 38.1391C18.9971 38.6303 19.0921 39.2211 19.0073 39.7668C18.9875 39.8943 18.9929 40.0244 19.0234 40.1498C19.0538 40.2752 19.1087 40.3933 19.1848 40.4975C19.261 40.6017 19.3569 40.6899 19.4671 40.7569C19.5773 40.824 19.6997 40.8688 19.8272 40.8886C19.9547 40.9084 20.0849 40.903 20.2102 40.8725C20.3356 40.842 20.4538 40.7872 20.558 40.711C20.6621 40.6349 20.7503 40.539 20.8174 40.4287C20.8845 40.3185 20.9292 40.1962 20.949 40.0687C21.0989 39.1033 20.9391 38.1105 20.4926 37.2415C20.0461 36.3725 19.3322 35.6643 18.46 35.2241C17.8223 34.9021 17.119 34.7329 16.4083 34.7273ZM34.156 34.8474C33.3895 34.851 32.6321 35.0452 31.9569 35.4139C31.0994 35.8821 30.4092 36.613 29.991 37.4959C29.5728 38.3788 29.4444 39.3762 29.6255 40.3362C29.6739 40.5921 29.8219 40.8182 30.037 40.9649C30.2521 41.1116 30.5166 41.167 30.7725 41.1188C31.0285 41.0706 31.2549 40.9226 31.4018 40.7075C31.5488 40.4924 31.6042 40.2277 31.556 39.9717C31.4537 39.429 31.5297 38.8361 31.766 38.337C32.0024 37.8379 32.4132 37.4021 32.8979 37.1375C33.3356 36.8985 33.8564 36.7841 34.3539 36.8174C34.8515 36.8506 35.3514 37.0332 35.7534 37.3283C35.8573 37.4047 35.9753 37.4598 36.1006 37.4906C36.2259 37.5214 36.356 37.5272 36.4835 37.5077C36.611 37.4882 36.7334 37.4438 36.8438 37.3769C36.9541 37.3101 37.0502 37.2222 37.1266 37.1183C37.203 37.0143 37.2581 36.8963 37.2889 36.7711C37.3197 36.6458 37.3255 36.5157 37.306 36.3882C37.2865 36.2606 37.2421 36.1382 37.1753 36.0279C37.1084 35.9175 37.0205 35.8214 36.9166 35.745C36.2078 35.2248 35.3625 34.9162 34.4852 34.8575C34.3755 34.8502 34.2655 34.8469 34.156 34.8474Z" fill="#6F1317"/>
<path d="M66.3459 4.34595C67.7139 4.34595 68.7279 4.62195 69.3879 5.17395C70.0599 5.71395 70.3959 6.47595 70.3959 7.45995C70.3959 8.91195 69.6759 9.88995 68.2359 10.3939C69.0519 10.5379 69.6879 10.8679 70.1439 11.3839C70.6119 11.8999 70.8459 12.5719 70.8459 13.3999C70.8459 14.5999 70.4379 15.5119 69.6219 16.1359C68.8059 16.7479 67.6899 17.0539 66.2739 17.0539C65.8899 17.0539 65.0139 17.0419 63.6459 17.0179C63.4419 17.0059 63.2619 16.9279 63.1059 16.7839C62.9619 16.6279 62.8899 16.4479 62.8899 16.2439V5.17395C62.8899 4.96995 62.9619 4.78995 63.1059 4.63395C63.2619 4.47795 63.4419 4.39995 63.6459 4.39995C65.1939 4.36395 66.0939 4.34595 66.3459 4.34595ZM66.4539 11.2579H64.4199V15.5419C64.9119 15.5899 65.5599 15.6139 66.3639 15.6139C67.3119 15.6139 68.0379 15.4219 68.5419 15.0379C69.0579 14.6419 69.3159 14.0659 69.3159 13.3099C69.3159 12.6499 69.0639 12.1459 68.5599 11.7979C68.0679 11.4379 67.3659 11.2579 66.4539 11.2579ZM64.4199 5.83995V9.90795H66.4359C67.1439 9.90795 67.7259 9.72195 68.1819 9.34995C68.6379 8.96595 68.8659 8.44995 68.8659 7.80195C68.8659 6.45795 68.0139 5.78595 66.3099 5.78595C65.9499 5.78595 65.3199 5.80395 64.4199 5.83995ZM74.8453 11.2579V16.4059C74.8573 16.7059 74.7373 16.9159 74.4853 17.0359C74.2453 17.1559 73.9993 17.1559 73.7473 17.0359C73.5073 16.9159 73.3933 16.7059 73.4053 16.4059V9.52995C73.3933 9.22995 73.5073 9.01995 73.7473 8.89995C73.9993 8.77995 74.2453 8.77995 74.4853 8.89995C74.7373 9.01995 74.8573 9.22995 74.8453 9.52995V9.85395C75.3253 9.12195 76.0033 8.75595 76.8793 8.75595C77.0833 8.75595 77.3293 8.79195 77.6173 8.86395C77.9653 8.97195 78.1393 9.16395 78.1393 9.43995C78.1393 9.45195 78.1333 9.46995 78.1213 9.49395C78.1213 9.50595 78.1153 9.52995 78.1033 9.56595C78.1033 9.60195 78.1033 9.63795 78.1033 9.67395C78.0193 10.0099 77.7793 10.1779 77.3833 10.1779C77.3593 10.1779 77.2393 10.1659 77.0233 10.1419C76.8793 10.1179 76.7173 10.1059 76.5373 10.1059C75.8053 10.1059 75.2413 10.4899 74.8453 11.2579ZM78.9465 14.6239C78.9465 13.8319 79.2285 13.2079 79.7925 12.7519C80.3565 12.2839 81.0945 12.0499 82.0065 12.0499C82.8585 12.0499 83.5305 12.2239 84.0225 12.5719C84.0225 11.6599 83.8965 11.0059 83.6445 10.6099C83.3925 10.2139 82.9065 10.0159 82.1865 10.0159C81.6585 10.0159 81.1185 10.1239 80.5665 10.3399C80.4705 10.3759 80.3805 10.3939 80.2965 10.3939C80.0325 10.3939 79.8465 10.2739 79.7385 10.0339C79.7025 9.94995 79.6845 9.86595 79.6845 9.78195C79.6845 9.49395 79.8045 9.30195 80.0445 9.20595C80.8125 8.88195 81.5565 8.71995 82.2765 8.71995C83.3685 8.71995 84.1605 8.98995 84.6525 9.52995C85.1445 10.0699 85.3905 10.9039 85.3905 12.0319V16.4959C85.3905 16.6639 85.3245 16.8139 85.1925 16.9459C85.0605 17.0659 84.8985 17.1259 84.7065 17.1259C84.5145 17.1259 84.3525 17.0659 84.2205 16.9459C84.0885 16.8139 84.0225 16.6639 84.0225 16.4959V15.9559C83.3865 16.7359 82.5225 17.1259 81.4305 17.1259C80.6865 17.1259 80.0865 16.9039 79.6305 16.4599C79.1745 16.0039 78.9465 15.3919 78.9465 14.6239ZM84.0225 14.7859V13.7599C83.5185 13.3999 82.9125 13.2199 82.2045 13.2199C81.7125 13.2199 81.2985 13.3399 80.9625 13.5799C80.6385 13.8079 80.4765 14.1319 80.4765 14.5519C80.4765 14.9479 80.6025 15.2599 80.8545 15.4879C81.1185 15.7159 81.4785 15.8299 81.9345 15.8299C82.7385 15.8299 83.4345 15.4819 84.0225 14.7859ZM89.6378 9.49395V16.4419C89.6618 16.7179 89.5478 16.9099 89.2958 17.0179C89.0438 17.1379 88.7918 17.1379 88.5398 17.0179C88.2878 16.9099 88.1738 16.7179 88.1978 16.4419V9.49395C88.1738 9.21795 88.2878 9.02595 88.5398 8.91795C88.7918 8.79795 89.0438 8.79795 89.2958 8.91795C89.5478 9.02595 89.6618 9.21795 89.6378 9.49395ZM88.0178 5.85795C88.0178 5.60595 88.1078 5.40195 88.2878 5.24595C88.4678 5.07795 88.6898 4.99395 88.9538 4.99395C89.2058 4.99395 89.4158 5.07795 89.5838 5.24595C89.7518 5.40195 89.8358 5.60595 89.8358 5.85795C89.8358 6.13395 89.7518 6.36195 89.5838 6.54195C89.4158 6.70995 89.2058 6.79395 88.9538 6.79395C88.6898 6.79395 88.4678 6.70995 88.2878 6.54195C88.1078 6.36195 88.0178 6.13395 88.0178 5.85795ZM94.0582 11.1499V16.4419C94.0822 16.7179 93.9682 16.9099 93.7162 17.0179C93.4642 17.1379 93.2122 17.1379 92.9602 17.0179C92.7082 16.9099 92.5942 16.7179 92.6182 16.4419V9.49395C92.5942 9.21795 92.7082 9.02595 92.9602 8.91795C93.2122 8.79795 93.4642 8.79795 93.7162 8.91795C93.9682 9.02595 94.0822 9.21795 94.0582 9.49395V9.88995C94.3582 9.55395 94.7482 9.28395 95.2282 9.07995C95.7202 8.86395 96.2122 8.75595 96.7042 8.75595C98.9482 8.75595 100.07 9.94395 100.07 12.3199V16.4419C100.094 16.7179 99.9802 16.9099 99.7282 17.0179C99.4762 17.1379 99.2242 17.1379 98.9722 17.0179C98.7202 16.9099 98.6062 16.7179 98.6302 16.4419V12.5899C98.6302 10.9339 97.8682 10.1059 96.3442 10.1059C95.4322 10.1059 94.6702 10.4539 94.0582 11.1499Z" fill="#242424"/>
<path d="M64.5639 18.9581L71.9799 28.3361V19.0121C71.9799 18.8201 72.0519 18.6581 72.1959 18.5261C72.3399 18.3821 72.5079 18.3101 72.6999 18.3101C72.8919 18.3101 73.0599 18.3821 73.2039 18.5261C73.3479 18.6581 73.4199 18.8201 73.4199 19.0121V30.3521C73.4199 30.5801 73.3599 30.7661 73.2399 30.9101C73.1199 31.0541 72.9639 31.1261 72.7719 31.1261C72.4599 31.1261 72.1539 30.9401 71.8539 30.5681L64.3299 21.0821V30.4241C64.3299 30.6161 64.2579 30.7841 64.1139 30.9281C63.9699 31.0601 63.8019 31.1261 63.6099 31.1261C63.4179 31.1261 63.2499 31.0601 63.1059 30.9281C62.9619 30.7841 62.8899 30.6161 62.8899 30.4241V19.1561C62.8899 18.9041 62.9499 18.7001 63.0699 18.5441C63.2019 18.3881 63.3759 18.3101 63.5919 18.3101C63.9039 18.3101 64.2279 18.5261 64.5639 18.9581ZM77.2705 29.9741C76.4665 29.1821 76.0645 28.1741 76.0645 26.9501C76.0645 25.7261 76.4665 24.7121 77.2705 23.9081C78.0625 23.1161 79.1005 22.7201 80.3845 22.7201C81.6565 22.7201 82.7005 23.1161 83.5165 23.9081C84.3085 24.7241 84.7045 25.7381 84.7045 26.9501C84.7045 28.1741 84.3085 29.1821 83.5165 29.9741C82.7125 30.7781 81.6685 31.1801 80.3845 31.1801C79.1005 31.1801 78.0625 30.7781 77.2705 29.9741ZM77.5945 26.9501C77.5945 27.7901 77.8525 28.4801 78.3685 29.0201C78.8965 29.5601 79.5685 29.8301 80.3845 29.8301C81.2005 29.8301 81.8665 29.5661 82.3825 29.0381C82.9105 28.4981 83.1745 27.8021 83.1745 26.9501C83.1745 26.1101 82.9105 25.4201 82.3825 24.8801C81.8665 24.3401 81.2005 24.0701 80.3845 24.0701C79.5805 24.0701 78.9145 24.3401 78.3865 24.8801C77.8585 25.4081 77.5945 26.0981 77.5945 26.9501ZM89.4647 29.7941C89.5967 29.7941 89.8127 29.7581 90.1127 29.6861C90.4127 29.6141 90.5807 29.5781 90.6167 29.5781C90.7967 29.5781 90.9407 29.6321 91.0487 29.7401C91.1687 29.8481 91.2287 29.9921 91.2287 30.1721C91.2287 30.3881 91.1027 30.5801 90.8507 30.7481C90.4307 31.0121 89.8547 31.1441 89.1227 31.1441C88.2467 31.1441 87.6047 30.8801 87.1967 30.3521C86.7887 29.8241 86.5847 29.0141 86.5847 27.9221V21.3341C86.5607 21.0581 86.6747 20.8661 86.9267 20.7581C87.1787 20.6381 87.4307 20.6381 87.6827 20.7581C87.9347 20.8661 88.0487 21.0581 88.0247 21.3341V22.9001H90.3107C90.5027 22.9001 90.6647 22.9661 90.7967 23.0981C90.9287 23.2301 90.9947 23.3861 90.9947 23.5661C90.9947 23.7581 90.9287 23.9201 90.7967 24.0521C90.6647 24.1841 90.5027 24.2501 90.3107 24.2501H88.0247V27.7781C88.0247 29.1221 88.5047 29.7941 89.4647 29.7941Z" fill="#242424"/>
<path d="M62.8899 44.2439V33.1559C62.8899 32.9519 62.9619 32.7779 63.1059 32.6339C63.2499 32.4779 63.4299 32.3999 63.6459 32.3999C65.4099 32.3639 66.3039 32.3459 66.3279 32.3459C67.5519 32.3459 68.6259 32.5139 69.5499 32.8499C70.4739 33.1739 71.2119 33.6299 71.7639 34.2179C72.3159 34.7939 72.7239 35.4479 72.9879 36.1799C73.2639 36.8999 73.4019 37.6859 73.4019 38.5379C73.4019 40.4219 72.7779 41.9759 71.5299 43.1999C70.2699 44.4239 68.4879 45.0359 66.1839 45.0359C66.0639 45.0359 65.8959 45.0299 65.6799 45.0179C65.4639 45.0179 65.1519 45.0119 64.7439 44.9999C64.3359 44.9999 63.9699 44.9999 63.6459 44.9999C63.4419 44.9999 63.2619 44.9279 63.1059 44.7839C62.9619 44.6279 62.8899 44.4479 62.8899 44.2439ZM64.4199 33.8399V43.5599C64.7319 43.5599 65.0319 43.5659 65.3199 43.5779C65.6199 43.5779 65.8419 43.5839 65.9859 43.5959C66.1299 43.5959 66.2139 43.5959 66.2379 43.5959C67.9899 43.5959 69.3519 43.1279 70.3239 42.1919C71.2959 41.2799 71.7819 40.0619 71.7819 38.5379C71.7819 37.1219 71.3079 35.9759 70.3599 35.0999C69.4119 34.2239 68.0559 33.7859 66.2919 33.7859C66.0759 33.7859 65.7459 33.7979 65.3019 33.8219C64.8699 33.8339 64.5759 33.8399 64.4199 33.8399ZM76.4343 40.2299H81.3483C81.3123 39.5579 81.0843 39.0299 80.6643 38.6459C80.2563 38.2619 79.7043 38.0699 79.0083 38.0699C78.3003 38.0699 77.7123 38.2679 77.2443 38.6639C76.7883 39.0599 76.5183 39.5819 76.4343 40.2299ZM82.8423 40.4279C82.8423 40.6319 82.8363 40.7639 82.8243 40.8239C82.8123 40.9679 82.7403 41.0999 82.6083 41.2199C82.4883 41.3399 82.3563 41.3999 82.2123 41.3999H76.5243C76.5843 42.1559 76.8663 42.7499 77.3703 43.1819C77.8863 43.6139 78.5463 43.8299 79.3503 43.8299C80.1063 43.8299 80.7663 43.6679 81.3303 43.3439C81.4623 43.2719 81.5943 43.2359 81.7263 43.2359C81.9063 43.2359 82.0683 43.3139 82.2123 43.4699C82.2843 43.5539 82.3203 43.6619 82.3203 43.7939C82.3203 44.0219 82.2483 44.1839 82.1043 44.2799C81.2523 44.8799 80.2983 45.1799 79.2423 45.1799C77.9223 45.1799 76.8723 44.7959 76.0923 44.0279C75.3003 43.2599 74.9043 42.2339 74.9043 40.9499C74.9043 39.7379 75.2763 38.7239 76.0203 37.9079C76.7643 37.1159 77.7843 36.7199 79.0803 36.7199C80.1483 36.7199 81.0423 37.0619 81.7623 37.7459C82.4823 38.4539 82.8423 39.3479 82.8423 40.4279ZM84.3254 42.6239C84.3254 41.8319 84.6074 41.2079 85.1714 40.7519C85.7354 40.2839 86.4734 40.0499 87.3854 40.0499C88.2374 40.0499 88.9094 40.2239 89.4014 40.5719C89.4014 39.6599 89.2754 39.0059 89.0234 38.6099C88.7714 38.2139 88.2854 38.0159 87.5654 38.0159C87.0374 38.0159 86.4974 38.1239 85.9454 38.3399C85.8494 38.3759 85.7594 38.3939 85.6754 38.3939C85.4114 38.3939 85.2254 38.2739 85.1174 38.0339C85.0814 37.9499 85.0634 37.8659 85.0634 37.7819C85.0634 37.4939 85.1834 37.3019 85.4234 37.2059C86.1914 36.8819 86.9354 36.7199 87.6554 36.7199C88.7474 36.7199 89.5394 36.9899 90.0314 37.5299C90.5234 38.0699 90.7694 38.9039 90.7694 40.0319V44.4959C90.7694 44.6639 90.7034 44.8139 90.5714 44.9459C90.4394 45.0659 90.2774 45.1259 90.0854 45.1259C89.8934 45.1259 89.7314 45.0659 89.5994 44.9459C89.4674 44.8139 89.4014 44.6639 89.4014 44.4959V43.9559C88.7654 44.7359 87.9014 45.1259 86.8094 45.1259C86.0654 45.1259 85.4654 44.9039 85.0094 44.4599C84.5534 44.0039 84.3254 43.3919 84.3254 42.6239ZM89.4014 42.7859V41.7599C88.8974 41.3999 88.2914 41.2199 87.5834 41.2199C87.0914 41.2199 86.6774 41.3399 86.3414 41.5799C86.0174 41.8079 85.8554 42.1319 85.8554 42.5519C85.8554 42.9479 85.9814 43.2599 86.2334 43.4879C86.4974 43.7159 86.8574 43.8299 87.3134 43.8299C88.1174 43.8299 88.8134 43.4819 89.4014 42.7859ZM100.561 33.0839V44.4419C100.585 44.7179 100.471 44.9099 100.219 45.0179C99.9667 45.1379 99.7147 45.1379 99.4627 45.0179C99.2107 44.9099 99.0967 44.7179 99.1207 44.4419V43.9739C98.4007 44.7539 97.5427 45.1439 96.5467 45.1439C95.3587 45.1439 94.4107 44.7659 93.7027 44.0099C92.9947 43.2419 92.6407 42.2399 92.6407 41.0039C92.6407 39.7439 93.0607 38.7119 93.9007 37.9079C94.7287 37.1159 95.7847 36.7199 97.0687 36.7199C97.8847 36.7199 98.5687 36.9119 99.1207 37.2959V33.0839C99.0967 32.8079 99.2107 32.6159 99.4627 32.5079C99.7147 32.3879 99.9667 32.3879 100.219 32.5079C100.471 32.6159 100.585 32.8079 100.561 33.0839ZM99.1207 42.7139V38.6999C98.4487 38.2799 97.7827 38.0699 97.1227 38.0699C96.2947 38.0699 95.5987 38.3339 95.0347 38.8619C94.4587 39.4019 94.1707 40.1039 94.1707 40.9679C94.1707 41.8319 94.4107 42.5219 94.8907 43.0379C95.3827 43.5419 96.0247 43.7939 96.8167 43.7939C97.7047 43.7939 98.4727 43.4339 99.1207 42.7139Z" fill="#242424"/>
<path d="M92 26H61C60.4477 26 60 26.4477 60 27C60 27.5523 60.4477 28 61 28H92C92.5523 28 93 27.5523 93 27C93 26.4477 92.5523 26 92 26Z" fill="#FA899B"/>
<path d="M102 40H61C60.4477 40 60 40.4477 60 41C60 41.5523 60.4477 42 61 42H102C102.552 42 103 41.5523 103 41C103 40.4477 102.552 40 102 40Z" fill="#FA899B"/>
</g>
<defs>
<clipPath id="clip0_184_3">
<rect width="103" height="50" fill="white"/>
</clipPath>
</defs>
</svg>
