<svg width="142" height="98" viewBox="0 0 142 98" fill="none" xmlns="http://www.w3.org/2000/svg">
<path d="M81.6001 92.6C112.97 92.6 138.4 71.8708 138.4 46.3C138.4 20.7292 112.97 0 81.6001 0C50.2303 0 24.8 20.7292 24.8 46.3C24.8 71.8708 50.2303 92.6 81.6001 92.6Z" fill="#00C70C"/>
<path d="M81.6001 86.1C112.97 86.1 138.4 68.2809 138.4 46.3C138.4 24.3191 112.97 6.5 81.6001 6.5C50.2303 6.5 24.8 24.3191 24.8 46.3C24.8 68.2809 50.2303 86.1 81.6001 86.1Z" fill="#007307"/>
<path d="M81.6001 72.4002C112.97 72.4002 138.4 60.7149 138.4 46.3002C138.4 31.8856 112.97 20.2002 81.6001 20.2002C50.2303 20.2002 24.8 31.8856 24.8 46.3002C24.8 60.7149 50.2303 72.4002 81.6001 72.4002Z" fill="#00C70C"/>
<path d="M81.6001 57.9002C112.97 57.9002 138.4 52.7067 138.4 46.3002C138.4 39.8937 112.97 34.7002 81.6001 34.7002C50.2303 34.7002 24.8 39.8937 24.8 46.3002C24.8 52.7067 50.2303 57.9002 81.6001 57.9002Z" fill="#007307"/>
<path d="M136.2 46.7999C136.2 48.8999 137.1 50.5999 138.2 50.5999C139.3 50.5999 140.2 48.8999 140.2 46.7999V45.6999C140.2 43.5999 139.3 41.8999 138.2 41.8999C137.1 41.8999 136.2 43.5999 136.2 45.6999V46.7999Z" fill="#574E39"/>
<path d="M138.4 46.1998C138.4 47.2998 138.8 48.0998 139.3 48.0998H140.5C141 48.0998 141.4 47.1998 141.4 46.1998C141.4 45.0998 141 44.2998 140.5 44.2998H139.3C138.8 44.2998 138.4 45.1998 138.4 46.1998Z" fill="#574E39"/>
<path opacity="0.6" d="M140.5 44.3H140.1C139.8 42.9 139.1 41.8 138.2 41.8C138.1 41.8 138.1 41.8 138 41.8C135.3 18.3 111 0 81.4999 0C50.1999 0 24.7 20.7 24.7 46.3C24.7 71.9 50.0999 92.6 81.4999 92.6C111.1 92.6 135.4 74.1 138 50.6C138.1 50.6 138.1 50.6 138.2 50.6C139.1 50.6 139.8 49.6 140.1 48.1H140.5C141 48.1 141.4 47.2 141.4 46.2C141.4 45.2 141.1 44.3 140.5 44.3Z" fill="url(#paint0_radial_191_1218)"/>
<path opacity="0.4" d="M140.5 44.3H140.1C139.8 42.9 139.1 41.8 138.2 41.8C138.1 41.8 138.1 41.8 138 41.8C135.3 18.3 111 0 81.4999 0C50.1999 0 24.7 20.7 24.7 46.3C24.7 71.9 50.0999 92.6 81.4999 92.6C111.1 92.6 135.4 74.1 138 50.6C138.1 50.6 138.1 50.6 138.2 50.6C139.1 50.6 139.8 49.6 140.1 48.1H140.5C141 48.1 141.4 47.2 141.4 46.2C141.4 45.2 141.1 44.3 140.5 44.3Z" fill="url(#paint1_linear_191_1218)"/>
<path d="M0 47.3999C0.2 75.2999 24 97.7999 53.2 97.7999C82.4 97.7999 106.2 75.2999 106.4 47.3999H0Z" fill="#00D10C"/>
<path d="M2.40002 47.3999C2.60002 73.4999 25.3 94.4999 53.2 94.4999C81.1 94.4999 103.8 73.3999 104 47.3999H2.40002Z" fill="#D3FCCF"/>
<path d="M12 47.3999C12.2 68.2999 30.6 85.1999 53.2 85.1999C75.9 85.1999 94.3 68.2999 94.4 47.3999H12Z" fill="#FF0033"/>
<path d="M29.8 54.2998C29.8 54.2998 25.6 54.5998 23.5 56.4998C20.7 59.0998 22.7 60.8998 22.7 60.8998C22.7 60.8998 24.4 62.9998 27.2 60.3998C29.3 58.4998 29.8 54.2998 29.8 54.2998Z" fill="#1D1D1B"/>
<path d="M37.7 63C37.7 63 33.6 64.2 32 66.6C29.9 69.8 32.2 71.1 32.2 71.1C32.2 71.1 34.3 72.7 36.5 69.6C38.1 67.2 37.7 63 37.7 63Z" fill="#1D1D1B"/>
<path d="M47.1999 68.5996C47.1999 68.5996 43.8999 71.2996 43.3999 74.0996C42.6999 77.7996 45.2999 78.1996 45.2999 78.1996C45.2999 78.1996 47.8999 78.8996 48.5999 75.1996C49.1999 72.3996 47.1999 68.5996 47.1999 68.5996Z" fill="#1D1D1B"/>
<path d="M76.6 54.2998C76.6 54.2998 80.8 54.5998 82.9 56.4998C85.7 59.0998 83.7 60.8998 83.7 60.8998C83.7 60.8998 82 62.9998 79.2 60.3998C77.2 58.4998 76.6 54.2998 76.6 54.2998Z" fill="#1D1D1B"/>
<path d="M68.7 63C68.7 63 72.8 64.2 74.4 66.6C76.5 69.8 74.2 71.1 74.2 71.1C74.2 71.1 72.1 72.7 69.9 69.6C68.4 67.2 68.7 63 68.7 63Z" fill="#1D1D1B"/>
<path d="M59.3 68.5996C59.3 68.5996 62.6 71.2996 63.1 74.0996C63.8 77.7996 61.2 78.1996 61.2 78.1996C61.2 78.1996 58.6 78.8996 57.9 75.1996C57.3 72.3996 59.3 68.5996 59.3 68.5996Z" fill="#1D1D1B"/>
<defs>
<radialGradient id="paint0_radial_191_1218" cx="0" cy="0" r="1" gradientUnits="userSpaceOnUse" gradientTransform="translate(86.0966 66.085) scale(46.1168 34.6752)">
<stop/>
<stop offset="1" stop-color="#242422" stop-opacity="0"/>
</radialGradient>
<linearGradient id="paint1_linear_191_1218" x1="83.1676" y1="92.5983" x2="83.1676" y2="-9.3059" gradientUnits="userSpaceOnUse">
<stop offset="0.4002" stop-color="white" stop-opacity="0"/>
<stop offset="0.9249" stop-color="white"/>
</linearGradient>
</defs>
</svg>
