<svg width="121" height="93" viewBox="0 0 121 93" fill="none" xmlns="http://www.w3.org/2000/svg">
<path d="M77.0168 26.8684C77.0168 26.8684 78.3168 20.1684 74.6168 9.36837C74.6168 9.36837 78.4168 7.46837 80.6168 9.36837C80.6168 9.36837 81.1168 19.1684 79.3168 26.8684H77.0168Z" fill="#754A22"/>
<path d="M103.217 20.7682C90.6168 18.0682 78.6168 24.9682 78.6168 24.9682C78.6168 24.9682 66.6168 18.0682 54.0168 20.7682C41.4168 23.4682 30.8168 35.5682 41.6168 62.2682C49.3168 81.2682 58.8168 87.8682 68.1168 86.0682C77.4168 84.2682 78.6168 84.5682 78.6168 84.5682C78.6168 84.5682 79.8168 84.2682 89.1168 86.0682C98.4168 87.8682 107.917 81.2682 115.617 62.2682C126.417 35.5682 115.817 23.4682 103.217 20.7682Z" fill="#FF1C23"/>
<path opacity="0.4" d="M103.217 20.7682C90.6168 18.0682 78.6168 24.9682 78.6168 24.9682C78.6168 24.9682 66.6168 18.0682 54.0168 20.7682C41.4168 23.4682 30.8168 35.5682 41.6168 62.2682C49.3168 81.2682 58.8168 87.8682 68.1168 86.0682C77.4168 84.2682 78.6168 84.5682 78.6168 84.5682C78.6168 84.5682 79.8168 84.2682 89.1168 86.0682C98.4168 87.8682 107.917 81.2682 115.617 62.2682C126.417 35.5682 115.817 23.4682 103.217 20.7682Z" fill="url(#paint0_linear_191_1219)"/>
<path opacity="0.4" d="M103.217 20.7682C90.6168 18.0682 78.6168 24.9682 78.6168 24.9682C78.6168 24.9682 66.6168 18.0682 54.0168 20.7682C41.4168 23.4682 30.8168 35.5682 41.6168 62.2682C49.3168 81.2682 58.8168 87.8682 68.1168 86.0682C77.4168 84.2682 78.6168 84.5682 78.6168 84.5682C78.6168 84.5682 79.8168 84.2682 89.1168 86.0682C98.4168 87.8682 107.917 81.2682 115.617 62.2682C126.417 35.5682 115.817 23.4682 103.217 20.7682Z" fill="url(#paint1_radial_191_1219)"/>
<path d="M80.7168 15.0682C80.7168 15.0682 86.8168 -8.83182 111.117 3.56818C111.017 3.66818 104.717 21.9682 80.7168 15.0682Z" fill="#7BD917"/>
<path d="M35.9168 38.6683C35.9168 38.6683 37.0168 32.6683 33.7168 22.8683C33.7168 22.8683 37.1168 21.1683 39.1168 22.8683C39.1168 22.8683 39.5168 31.7683 38.0168 38.6683H35.9168Z" fill="#754A22"/>
<path d="M59.6168 33.2682C48.2168 30.8682 37.4168 37.0682 37.4168 37.0682C37.4168 37.0682 26.6168 30.7682 15.2168 33.2682C3.8168 35.6682 -5.68321 46.5682 4.01679 70.6682C10.9168 87.7682 19.5168 93.7682 27.9168 92.1682C36.3168 90.5682 37.4168 90.7682 37.4168 90.7682C37.4168 90.7682 38.5168 90.4682 46.9168 92.1682C55.3168 93.7682 63.9168 87.8682 70.8168 70.6682C80.5168 46.5682 71.0168 35.6682 59.6168 33.2682Z" fill="#FF363C"/>
<path opacity="0.4" d="M59.6168 33.2682C48.2168 30.8682 37.4168 37.0682 37.4168 37.0682C37.4168 37.0682 26.6168 30.7682 15.2168 33.2682C3.8168 35.6682 -5.68321 46.5682 4.01679 70.6682C10.9168 87.7682 19.5168 93.7682 27.9168 92.1682C36.3168 90.5682 37.4168 90.7682 37.4168 90.7682C37.4168 90.7682 38.5168 90.4682 46.9168 92.1682C55.3168 93.7682 63.9168 87.8682 70.8168 70.6682C80.5168 46.5682 71.0168 35.6682 59.6168 33.2682Z" fill="url(#paint2_linear_191_1219)"/>
<path d="M57.9168 35.4681C47.4168 33.1681 37.4168 38.9681 37.4168 38.9681C37.4168 38.9681 27.4168 33.1681 16.9168 35.4681C6.41677 37.7681 -2.38321 47.7681 6.61679 70.0681C13.0168 85.8681 20.9168 91.3681 28.7168 89.8681C36.5168 88.3681 37.5168 88.5681 37.5168 88.5681C37.5168 88.5681 38.5168 88.2681 46.3168 89.8681C54.1168 91.3681 62.0168 85.8681 68.4168 70.0681C77.2168 47.7681 68.4168 37.7681 57.9168 35.4681Z" fill="#FFFCED"/>
<path d="M39.3168 27.6682C39.3168 27.6682 44.8168 6.06819 66.7168 17.3682C66.8168 17.2682 61.1168 33.8682 39.3168 27.6682Z" fill="#7BD917"/>
<path opacity="0.4" d="M47.7168 66.368C46.0168 55.968 37.3167 41.168 37.3167 41.168C37.3167 41.168 28.0167 55.968 26.3167 66.368C24.8167 75.568 37.3167 81.668 37.3167 86.468C37.4167 81.668 49.3168 75.568 47.7168 66.368Z" fill="#FFDEA8"/>
<path d="M43.6168 64.9682C42.6168 59.7682 37.4168 53.3682 37.4168 53.3682C37.4168 53.3682 32.2168 59.7682 31.2168 64.9682C30.3168 69.5682 37.4168 73.6681 37.4168 76.0681C37.4168 73.6681 44.5168 69.5682 43.6168 64.9682Z" fill="#FFDEA8"/>
<path d="M35.4168 66.6684C35.4168 66.6684 32.1168 65.5684 30.9168 65.9684C28.7168 66.6684 29.3168 68.6684 29.3168 68.6684C29.3168 68.6684 30.1168 70.5684 32.3168 69.8684C33.4168 69.5684 35.4168 66.6684 35.4168 66.6684Z" fill="#543B17"/>
<path d="M40.1168 66.6684C40.1168 66.6684 43.4168 65.5684 44.6168 65.9684C46.8168 66.6684 46.2168 68.6684 46.2168 68.6684C46.2168 68.6684 45.4168 70.5684 43.2168 69.8684C42.1168 69.5684 40.1168 66.6684 40.1168 66.6684Z" fill="#543B17"/>
<defs>
<linearGradient id="paint0_linear_191_1219" x1="78.5798" y1="68.4642" x2="78.5798" y2="8.60148" gradientUnits="userSpaceOnUse">
<stop stop-color="white" stop-opacity="0"/>
<stop offset="1" stop-color="white"/>
</linearGradient>
<radialGradient id="paint1_radial_191_1219" cx="0" cy="0" r="1" gradientUnits="userSpaceOnUse" gradientTransform="translate(50.4275 61.7741) scale(49.313 49.313)">
<stop/>
<stop offset="0.8196" stop-color="#242422" stop-opacity="0"/>
</radialGradient>
<linearGradient id="paint2_linear_191_1219" x1="37.3756" y1="76.3019" x2="37.3756" y2="16.51" gradientUnits="userSpaceOnUse">
<stop offset="0.1217" stop-color="white" stop-opacity="0"/>
<stop offset="1" stop-color="white"/>
</linearGradient>
</defs>
</svg>
