<svg width="107" height="98" viewBox="0 0 107 98" fill="none" xmlns="http://www.w3.org/2000/svg">
<path d="M72.071 11.644C94.971 26.044 106.571 4.64396 106.571 4.64396C77.471 -8.95604 72.071 11.644 72.071 11.644Z" fill="#7BD917"/>
<path d="M45.1711 10.544C45.1711 10.544 54.5712 23.944 70.3712 12.544C70.3712 12.644 65.4711 -0.75599 45.1711 10.544Z" fill="#7BD917"/>
<path d="M68.6711 5.44393C68.6711 5.44393 70.8712 9.74394 70.3712 20.6439H72.0712C72.0712 20.6439 72.5712 6.54392 73.0712 4.74392C73.0712 4.74392 69.8711 3.44393 68.6711 5.44393Z" fill="#8C5200"/>
<path d="M70.3711 19.2441C51.2711 19.2441 35.8711 33.6441 35.8711 52.7441C35.8711 71.8441 51.3711 87.2441 70.3711 87.2441C89.4711 87.2441 104.871 71.7441 104.871 52.7441C104.871 33.7441 89.3711 19.2441 70.3711 19.2441Z" fill="#FFB700"/>
<path opacity="0.4" d="M70.3711 19.2441C51.2711 19.2441 35.8711 33.6441 35.8711 52.7441C35.8711 71.8441 51.3711 87.2441 70.3711 87.2441C89.4711 87.2441 104.871 71.7441 104.871 52.7441C104.871 33.7441 89.3711 19.2441 70.3711 19.2441Z" fill="url(#paint0_linear_191_1215)"/>
<path opacity="0.6" d="M70.3711 19.2441C51.2711 19.2441 35.8711 33.6441 35.8711 52.7441C35.8711 71.8441 51.3711 87.2441 70.3711 87.2441C89.4711 87.2441 104.871 71.7441 104.871 52.7441C104.871 33.7441 89.3711 19.2441 70.3711 19.2441Z" fill="url(#paint1_radial_191_1215)"/>
<path d="M35.571 96.5439C54.6249 96.5439 70.071 81.0978 70.071 62.0439C70.071 42.9901 54.6249 27.5439 35.571 27.5439C16.5172 27.5439 1.07104 42.9901 1.07104 62.0439C1.07104 81.0978 16.5172 96.5439 35.571 96.5439Z" fill="#FFB700"/>
<path d="M35.571 92.8442C52.5814 92.8442 66.371 79.0546 66.371 62.0442C66.371 45.0338 52.5814 31.2441 35.571 31.2441C18.5606 31.2441 4.771 45.0338 4.771 62.0442C4.771 79.0546 18.5606 92.8442 35.571 92.8442Z" fill="#FEF9E7"/>
<path d="M60.1426 68.0028C63.4318 54.4227 55.0893 40.7473 41.5091 37.4582C27.929 34.169 14.2536 42.5114 10.9644 56.0916C7.67522 69.6717 16.0177 83.3471 29.5979 86.6363C43.1781 89.9255 56.8534 81.583 60.1426 68.0028Z" fill="#CEF037"/>
<path d="M35.571 36.7441V87.3442" stroke="#FFFCDE" stroke-width="2" stroke-miterlimit="10" stroke-linecap="round" stroke-linejoin="round"/>
<path d="M35.571 87.3442C49.5438 87.3442 60.871 76.017 60.871 62.0442C60.871 48.0714 49.5438 36.7441 35.571 36.7441C21.5982 36.7441 10.271 48.0714 10.271 62.0442C10.271 76.017 21.5982 87.3442 35.571 87.3442Z" fill="#CEF037"/>
<path d="M17.671 44.144L53.471 79.944" stroke="#FFFCDE" stroke-width="2" stroke-miterlimit="10" stroke-linecap="round" stroke-linejoin="round"/>
<path d="M17.671 79.944L53.471 44.144" stroke="#FFFCDE" stroke-width="2" stroke-miterlimit="10" stroke-linecap="round" stroke-linejoin="round"/>
<path d="M55.2021 78.0511C64.0371 67.225 62.423 51.2865 51.5969 42.4515C40.7707 33.6165 24.8322 35.2306 15.9972 46.0567C7.1622 56.8829 8.77635 72.8214 19.6025 81.6564C30.4286 90.4914 46.3671 88.8773 55.2021 78.0511Z" fill="#CEF037"/>
<path d="M10.271 62.0439H60.871" stroke="#FFFCDE" stroke-width="2" stroke-miterlimit="10" stroke-linecap="round" stroke-linejoin="round"/>
<path d="M35.571 87.3442V36.7441" stroke="#FFFCDE" stroke-width="2" stroke-miterlimit="10" stroke-linecap="round" stroke-linejoin="round"/>
<path d="M35.571 89.5439C50.7589 89.5439 63.071 77.2318 63.071 62.0439C63.071 46.8561 50.7589 34.5439 35.571 34.5439C20.3832 34.5439 8.07104 46.8561 8.07104 62.0439C8.07104 77.2318 20.3832 89.5439 35.571 89.5439Z" fill="#FF8A14"/>
<path d="M16.171 42.644L54.971 81.5441" stroke="#FEF9E7" stroke-width="2" stroke-miterlimit="10" stroke-linecap="round" stroke-linejoin="round"/>
<path d="M16.171 81.5441L54.971 42.644" stroke="#FEF9E7" stroke-width="2" stroke-miterlimit="10" stroke-linecap="round" stroke-linejoin="round"/>
<path d="M35.571 34.5439V89.5439" stroke="#FEF9E7" stroke-width="2" stroke-miterlimit="10" stroke-linecap="round" stroke-linejoin="round"/>
<path d="M8.07104 62.0439H63.071" stroke="#FEF9E7" stroke-width="2" stroke-miterlimit="10" stroke-linecap="round" stroke-linejoin="round"/>
<path d="M35.4711 55.144L37.4711 57.144H40.3711V60.0441L42.4711 62.144L40.3711 64.144V67.0441H37.4711L35.4711 69.144L33.3711 67.0441H30.4711V64.144L28.4711 62.144L30.4711 60.0441V57.144H33.3711L35.4711 55.144Z" fill="#FEF9E7"/>
<defs>
<linearGradient id="paint0_linear_191_1215" x1="70.3561" y1="90.0416" x2="70.3561" y2="15.0334" gradientUnits="userSpaceOnUse">
<stop offset="0.2609" stop-color="white" stop-opacity="0"/>
<stop offset="0.9299" stop-color="white" stop-opacity="0.9051"/>
<stop offset="1" stop-color="white"/>
</linearGradient>
<radialGradient id="paint1_radial_191_1215" cx="0" cy="0" r="1" gradientUnits="userSpaceOnUse" gradientTransform="translate(36.7365 62.3342) scale(50.9348)">
<stop/>
<stop offset="0.4786" stop-color="#131312" stop-opacity="0.5208"/>
<stop offset="0.9986" stop-color="#242422" stop-opacity="0"/>
</radialGradient>
</defs>
</svg>
