<svg width="90" height="99" viewBox="0 0 90 99" fill="none" xmlns="http://www.w3.org/2000/svg">
<path d="M39.5248 11.8952C39.5248 11.8952 35.8248 3.49517 23.8248 4.79517C13.2248 5.99517 5.22485 3.59521 5.22485 3.59521C5.22485 3.59521 9.22482 14.3952 19.1248 17.0952C21.0248 17.5952 22.9248 17.9952 24.8248 18.0952C23.4248 19.8952 23.2249 22.0952 23.2249 22.0952C34.3249 23.3952 39.9248 14.2952 39.5248 11.8952Z" fill="#7BD917"/>
<path d="M40.3248 31.995C40.3248 31.995 39.1248 12.395 38.1248 6.295C37.1248 0.195004 36.9248 1.39505 37.9248 0.595052C38.9248 -0.204948 45.4248 -1.10498 44.6248 4.49502C42.1248 22.295 43.4248 27.795 43.8248 31.495C43.9248 32.695 40.3248 31.995 40.3248 31.995Z" fill="#7A5237"/>
<path d="M43.5248 98.995C50.0418 98.995 55.3248 93.712 55.3248 87.195C55.3248 80.678 50.0418 75.395 43.5248 75.395C37.0079 75.395 31.7249 80.678 31.7249 87.195C31.7249 93.712 37.0079 98.995 43.5248 98.995Z" fill="#4C1457"/>
<path opacity="0.4" d="M43.5248 98.995C50.0418 98.995 55.3248 93.712 55.3248 87.195C55.3248 80.678 50.0418 75.395 43.5248 75.395C37.0079 75.395 31.7249 80.678 31.7249 87.195C31.7249 93.712 37.0079 98.995 43.5248 98.995Z" fill="url(#paint0_radial_191_1225)"/>
<path d="M33.3249 82.495C39.8419 82.495 45.1249 77.212 45.1249 70.695C45.1249 64.178 39.8419 58.895 33.3249 58.895C26.8079 58.895 21.5249 64.178 21.5249 70.695C21.5249 77.212 26.8079 82.495 33.3249 82.495Z" fill="#730B57"/>
<path opacity="0.4" d="M33.3249 82.495C39.8419 82.495 45.1249 77.212 45.1249 70.695C45.1249 64.178 39.8419 58.895 33.3249 58.895C26.8079 58.895 21.5249 64.178 21.5249 70.695C21.5249 77.212 26.8079 82.495 33.3249 82.495Z" fill="url(#paint1_radial_191_1225)"/>
<path d="M69.1248 43.995C75.6418 43.995 80.9248 38.712 80.9248 32.195C80.9248 25.678 75.6418 20.395 69.1248 20.395C62.6079 20.395 57.3248 25.678 57.3248 32.195C57.3248 38.712 62.6079 43.995 69.1248 43.995Z" fill="#4C1457"/>
<path opacity="0.4" d="M69.1248 43.995C75.6418 43.995 80.9248 38.712 80.9248 32.195C80.9248 25.678 75.6418 20.395 69.1248 20.395C62.6079 20.395 57.3248 25.678 57.3248 32.195C57.3248 38.712 62.6079 43.995 69.1248 43.995Z" fill="url(#paint2_radial_191_1225)"/>
<path d="M64.4814 72.4878C65.9712 66.1435 62.0358 59.7928 55.6916 58.303C49.3473 56.8132 42.9966 60.7485 41.5068 67.0928C40.017 73.4371 43.9524 79.7878 50.2966 81.2776C56.6409 82.7673 62.9917 78.832 64.4814 72.4878Z" fill="#590E55"/>
<path opacity="0.4" d="M53.0248 81.5956C59.5418 81.5956 64.8248 76.3126 64.8248 69.7956C64.8248 63.2786 59.5418 57.9956 53.0248 57.9956C46.5079 57.9956 41.2249 63.2786 41.2249 69.7956C41.2249 76.3126 46.5079 81.5956 53.0248 81.5956Z" fill="url(#paint3_radial_191_1225)"/>
<path d="M36.2674 53.8788C37.3075 47.4453 32.9352 41.3867 26.5017 40.3466C20.0681 39.3065 14.0096 43.6787 12.9695 50.1123C11.9294 56.5458 16.3016 62.6044 22.7351 63.6445C29.1687 64.6846 35.2272 60.3124 36.2674 53.8788Z" fill="#590E55"/>
<path opacity="0.4" d="M24.5248 63.7953C31.0418 63.7953 36.3248 58.5123 36.3248 51.9953C36.3248 45.4783 31.0418 40.1953 24.5248 40.1953C18.0079 40.1953 12.7249 45.4783 12.7249 51.9953C12.7249 58.5123 18.0079 63.7953 24.5248 63.7953Z" fill="url(#paint4_radial_191_1225)"/>
<path d="M19.8806 44.7515C25.9088 42.2757 28.7886 35.3818 26.3128 29.3536C23.8371 23.3254 16.9432 20.4457 10.915 22.9215C4.8868 25.3973 2.00702 32.2911 4.48282 38.3193C6.95861 44.3475 13.8525 47.2273 19.8806 44.7515Z" fill="#4C1457"/>
<path opacity="0.4" d="M15.4247 45.5952C21.9417 45.5952 27.2248 40.3121 27.2248 33.7951C27.2248 27.2781 21.9417 21.9951 15.4247 21.9951C8.90778 21.9951 3.62476 27.2781 3.62476 33.7951C3.62476 40.3121 8.90778 45.5952 15.4247 45.5952Z" fill="url(#paint5_radial_191_1225)"/>
<path d="M63.4247 64.1952C69.9417 64.1952 75.2248 58.9122 75.2248 52.3952C75.2248 45.8782 69.9417 40.5952 63.4247 40.5952C56.9078 40.5952 51.6248 45.8782 51.6248 52.3952C51.6248 58.9122 56.9078 64.1952 63.4247 64.1952Z" fill="#730B57"/>
<path opacity="0.4" d="M63.4247 64.1952C69.9417 64.1952 75.2248 58.9122 75.2248 52.3952C75.2248 45.8782 69.9417 40.5952 63.4247 40.5952C56.9078 40.5952 51.6248 45.8782 51.6248 52.3952C51.6248 58.9122 56.9078 64.1952 63.4247 64.1952Z" fill="url(#paint6_radial_191_1225)"/>
<path d="M43.3249 64.2953C49.8419 64.2953 55.1249 59.0123 55.1249 52.4953C55.1249 45.9783 49.8419 40.6953 43.3249 40.6953C36.8079 40.6953 31.5249 45.9783 31.5249 52.4953C31.5249 59.0123 36.8079 64.2953 43.3249 64.2953Z" fill="#4C1457"/>
<path opacity="0.4" d="M43.3249 64.2953C49.8419 64.2953 55.1249 59.0123 55.1249 52.4953C55.1249 45.9783 49.8419 40.6953 43.3249 40.6953C36.8079 40.6953 31.5249 45.9783 31.5249 52.4953C31.5249 59.0123 36.8079 64.2953 43.3249 64.2953Z" fill="url(#paint7_radial_191_1225)"/>
<path d="M64.5373 36.6982C65.5774 30.2646 61.2051 24.206 54.7716 23.1659C48.3381 22.1258 42.2795 26.4981 41.2394 32.9316C40.1993 39.3652 44.5715 45.4237 51.005 46.4638C57.4386 47.504 63.4972 43.1317 64.5373 36.6982Z" fill="#590E55"/>
<path opacity="0.4" d="M52.9247 46.5952C59.4417 46.5952 64.7248 41.3121 64.7248 34.7951C64.7248 28.2781 59.4417 22.9951 52.9247 22.9951C46.4078 22.9951 41.1248 28.2781 41.1248 34.7951C41.1248 41.3121 46.4078 46.5952 52.9247 46.5952Z" fill="url(#paint8_radial_191_1225)"/>
<path d="M33.0248 48.0952C39.5418 48.0952 44.8248 42.8121 44.8248 36.2951C44.8248 29.7781 39.5418 24.4951 33.0248 24.4951C26.5079 24.4951 21.2249 29.7781 21.2249 36.2951C21.2249 42.8121 26.5079 48.0952 33.0248 48.0952Z" fill="#730B57"/>
<path opacity="0.4" d="M33.0248 48.0952C39.5418 48.0952 44.8248 42.8121 44.8248 36.2951C44.8248 29.7781 39.5418 24.4951 33.0248 24.4951C26.5079 24.4951 21.2249 29.7781 21.2249 36.2951C21.2249 42.8121 26.5079 48.0952 33.0248 48.0952Z" fill="url(#paint9_radial_191_1225)"/>
<path d="M42.0248 12.1949C42.0248 12.1949 50.0248 2.59492 64.9248 8.99492C78.1248 14.5949 89.2248 14.6949 89.2248 14.6949C89.2248 14.6949 79.9248 27.1949 66.2248 26.8949C63.5248 26.8949 61.0248 26.4949 58.5248 25.9949C59.6248 28.9949 59.0248 31.7949 59.0248 31.7949C44.3248 29.0949 40.6248 15.0949 42.0248 12.1949Z" fill="#6ACC00"/>
<defs>
<radialGradient id="paint0_radial_191_1225" cx="0" cy="0" r="1" gradientUnits="userSpaceOnUse" gradientTransform="translate(40.2796 75.4488) scale(25.0745)">
<stop stop-color="white"/>
<stop offset="0.7186" stop-color="white" stop-opacity="0"/>
</radialGradient>
<radialGradient id="paint1_radial_191_1225" cx="0" cy="0" r="1" gradientUnits="userSpaceOnUse" gradientTransform="translate(30.0424 58.904) scale(25.0746)">
<stop stop-color="white"/>
<stop offset="0.7186" stop-color="white" stop-opacity="0"/>
</radialGradient>
<radialGradient id="paint2_radial_191_1225" cx="0" cy="0" r="1" gradientUnits="userSpaceOnUse" gradientTransform="translate(65.8777 20.4831) scale(25.0745)">
<stop stop-color="white"/>
<stop offset="0.7186" stop-color="white" stop-opacity="0"/>
</radialGradient>
<radialGradient id="paint3_radial_191_1225" cx="0" cy="0" r="1" gradientUnits="userSpaceOnUse" gradientTransform="translate(49.7489 58.0534) scale(25.0746 25.0746)">
<stop stop-color="white"/>
<stop offset="0.7186" stop-color="white" stop-opacity="0"/>
</radialGradient>
<radialGradient id="paint4_radial_191_1225" cx="0" cy="0" r="1" gradientUnits="userSpaceOnUse" gradientTransform="translate(21.3158 40.2093) scale(25.0746)">
<stop stop-color="white"/>
<stop offset="0.7186" stop-color="white" stop-opacity="0"/>
</radialGradient>
<radialGradient id="paint5_radial_191_1225" cx="0" cy="0" r="1" gradientUnits="userSpaceOnUse" gradientTransform="translate(12.2113 22.0387) scale(25.0746)">
<stop stop-color="white"/>
<stop offset="0.7186" stop-color="white" stop-opacity="0"/>
</radialGradient>
<radialGradient id="paint6_radial_191_1225" cx="0" cy="0" r="1" gradientUnits="userSpaceOnUse" gradientTransform="translate(60.1525 40.657) scale(25.0745 25.0745)">
<stop stop-color="white"/>
<stop offset="0.7186" stop-color="white" stop-opacity="0"/>
</radialGradient>
<radialGradient id="paint7_radial_191_1225" cx="0" cy="0" r="1" gradientUnits="userSpaceOnUse" gradientTransform="translate(40.0432 40.7154) scale(25.0746)">
<stop stop-color="white"/>
<stop offset="0.7186" stop-color="white" stop-opacity="0"/>
</radialGradient>
<radialGradient id="paint8_radial_191_1225" cx="0" cy="0" r="1" gradientUnits="userSpaceOnUse" gradientTransform="translate(49.6627 23.0955) scale(25.0746)">
<stop stop-color="white"/>
<stop offset="0.7186" stop-color="white" stop-opacity="0"/>
</radialGradient>
<radialGradient id="paint9_radial_191_1225" cx="0" cy="0" r="1" gradientUnits="userSpaceOnUse" gradientTransform="translate(29.7898 24.5385) scale(25.0745 25.0745)">
<stop stop-color="white"/>
<stop offset="0.7186" stop-color="white" stop-opacity="0"/>
</radialGradient>
</defs>
</svg>
