<svg width="109" height="78" viewBox="0 0 109 78" fill="none" xmlns="http://www.w3.org/2000/svg">
<path d="M26.8092 17.2328C23.5092 24.2328 24.0092 28.6328 21.2092 29.8328C18.4092 30.9328 18.3091 35.6328 18.5091 37.2328C18.4091 38.8328 19.1091 43.5328 22.0091 44.3328C24.9091 45.1328 24.9091 49.6328 29.0091 56.2328C33.1091 62.8328 52.4092 71.9328 76.6092 67.2328C100.809 62.5328 104.909 38.1328 104.909 38.1328C104.909 38.1328 109.009 34.2328 108.909 32.2328C108.809 30.2328 104.209 26.8328 104.209 26.8328C104.209 26.8328 97.4092 3.03283 72.8092 1.03283C48.3092 -0.967168 30.1092 10.2328 26.8092 17.2328Z" fill="#B8DE10"/>
<path opacity="0.4" d="M26.8092 17.2328C23.5092 24.2328 24.0092 28.6328 21.2092 29.8328C18.4092 30.9328 18.3091 35.6328 18.5091 37.2328C18.4091 38.8328 19.1091 43.5328 22.0091 44.3328C24.9091 45.1328 24.9091 49.6328 29.0091 56.2328C33.1091 62.8328 52.4092 71.9328 76.6092 67.2328C100.809 62.5328 104.909 38.1328 104.909 38.1328C104.909 38.1328 109.009 34.2328 108.909 32.2328C108.809 30.2328 104.209 26.8328 104.209 26.8328C104.209 26.8328 97.4092 3.03283 72.8092 1.03283C48.3092 -0.967168 30.1092 10.2328 26.8092 17.2328Z" fill="url(#paint0_linear_191_1228)"/>
<path opacity="0.6" d="M26.8092 17.2328C23.5092 24.2328 24.0092 28.6328 21.2092 29.8328C18.4092 30.9328 18.3091 35.6328 18.5091 37.2328C18.4091 38.8328 19.1091 43.5328 22.0091 44.3328C24.9091 45.1328 24.9091 49.6328 29.0091 56.2328C33.1091 62.8328 52.4092 71.9328 76.6092 67.2328C100.809 62.5328 104.909 38.1328 104.909 38.1328C104.909 38.1328 109.009 34.2328 108.909 32.2328C108.809 30.2328 104.209 26.8328 104.209 26.8328C104.209 26.8328 97.4092 3.03283 72.8092 1.03283C48.3092 -0.967168 30.1092 10.2328 26.8092 17.2328Z" fill="url(#paint1_radial_191_1228)"/>
<path d="M47.1771 74.9819C64.2587 67.7337 72.23 48.0105 64.9818 30.929C57.7335 13.8475 38.0103 5.87609 20.9288 13.1244C3.84733 20.3726 -4.12411 40.0958 3.12416 57.1773C10.3724 74.2588 30.0956 82.2302 47.1771 74.9819Z" fill="#C9F01F"/>
<path d="M63.6596 49.087C66.4315 32.7521 55.4365 17.2629 39.1016 14.491C22.7666 11.7191 7.27749 22.7141 4.50557 39.049C1.73366 55.3839 12.7286 70.8731 29.0636 73.645C45.3985 76.4169 60.8877 65.4219 63.6596 49.087Z" fill="#FFFCDE"/>
<path d="M34.1092 68.6326C47.6954 68.6326 58.7092 57.6188 58.7092 44.0326C58.7092 30.4464 47.6954 19.4326 34.1092 19.4326C20.523 19.4326 9.50916 30.4464 9.50916 44.0326C9.50916 57.6188 20.523 68.6326 34.1092 68.6326Z" fill="#CEF037"/>
<path d="M34.1091 19.4326V68.7326" stroke="#FFFCDE" stroke-width="2" stroke-miterlimit="10" stroke-linecap="round" stroke-linejoin="round"/>
<path d="M34.1092 68.6326C47.6954 68.6326 58.7092 57.6188 58.7092 44.0326C58.7092 30.4464 47.6954 19.4326 34.1092 19.4326C20.523 19.4326 9.50916 30.4464 9.50916 44.0326C9.50916 57.6188 20.523 68.6326 34.1092 68.6326Z" fill="#CEF037"/>
<path d="M16.7092 26.6328L51.6093 61.5328" stroke="#FFFCDE" stroke-width="2" stroke-miterlimit="10" stroke-linecap="round" stroke-linejoin="round"/>
<path d="M16.7092 61.5328L51.6093 26.6328" stroke="#FFFCDE" stroke-width="2" stroke-miterlimit="10" stroke-linecap="round" stroke-linejoin="round"/>
<path d="M43.6911 66.7372C56.2108 61.459 62.0811 47.0309 56.8029 34.5112C51.5246 21.9916 37.0966 16.1212 24.5769 21.3994C12.0572 26.6777 6.18682 41.1058 11.4651 53.6254C16.7433 66.1451 31.1714 72.0155 43.6911 66.7372Z" fill="#CEF037"/>
<path d="M9.50916 44.0327H58.8092" stroke="#FFFCDE" stroke-width="2" stroke-miterlimit="10" stroke-linecap="round" stroke-linejoin="round"/>
<path d="M34.1091 68.7326V19.4326" stroke="#FFFCDE" stroke-width="2" stroke-miterlimit="10" stroke-linecap="round" stroke-linejoin="round"/>
<path d="M34.1092 70.7325C48.8552 70.7325 60.8092 58.7785 60.8092 44.0325C60.8092 29.2865 48.8552 17.3325 34.1092 17.3325C19.3632 17.3325 7.40918 29.2865 7.40918 44.0325C7.40918 58.7785 19.3632 70.7325 34.1092 70.7325Z" fill="#E9F067"/>
<path d="M15.2092 25.1328L53.0092 62.9328" stroke="#FFFCDE" stroke-width="2" stroke-miterlimit="10" stroke-linecap="round" stroke-linejoin="round"/>
<path d="M15.2092 62.9328L53.0092 25.1328" stroke="#FFFCDE" stroke-width="2" stroke-miterlimit="10" stroke-linecap="round" stroke-linejoin="round"/>
<path d="M34.1091 17.3325V70.8325" stroke="#FFFCDE" stroke-width="2" stroke-miterlimit="10" stroke-linecap="round" stroke-linejoin="round"/>
<path d="M7.40918 44.0327H60.9092" stroke="#FFFCDE" stroke-width="2" stroke-miterlimit="10" stroke-linecap="round" stroke-linejoin="round"/>
<path d="M34.0092 38.6328L35.6092 40.2328H37.9092V42.5328L39.5092 44.1328L37.9092 45.7328V48.0328H35.6092L34.0092 49.6328L32.4092 48.0328H30.1092V45.7328L28.5092 44.1328L30.1092 42.5328V40.2328H32.4092L34.0092 38.6328Z" fill="#FFFCDE"/>
<defs>
<linearGradient id="paint0_linear_191_1228" x1="63.6767" y1="69.3893" x2="63.6767" y2="0.638033" gradientUnits="userSpaceOnUse">
<stop offset="0.3605" stop-color="white" stop-opacity="0"/>
<stop offset="0.9393" stop-color="white" stop-opacity="0.9051"/>
<stop offset="1" stop-color="white"/>
</linearGradient>
<radialGradient id="paint1_radial_191_1228" cx="0" cy="0" r="1" gradientUnits="userSpaceOnUse" gradientTransform="translate(37.7988 43.8788) scale(47.2056 47.2056)">
<stop/>
<stop offset="0.3012" stop-color="#111110" stop-opacity="0.6988"/>
<stop offset="0.6793" stop-color="#1F1F1D" stop-opacity="0.3207"/>
<stop offset="1" stop-color="#242422" stop-opacity="0"/>
</radialGradient>
</defs>
</svg>
