<svg width="110" height="106" viewBox="0 0 110 106" fill="none" xmlns="http://www.w3.org/2000/svg">
<path d="M70.5001 18.9849C70.5001 18.9849 71.6 14.6849 67.8 1.28489C67.8 1.28489 73.7001 -1.91511 74.2001 1.78489C74.2001 1.78489 74.2 10.8849 72.1 19.1849L70.5001 18.9849Z" fill="#AF5731"/>
<path d="M109.7 54.4851C109.7 54.1851 109.6 53.9851 109.4 53.7851L106.4 51.4851L109.1 48.6851C109.3 48.4851 109.4 48.1851 109.3 47.9851C109.3 47.6851 109.1 47.4851 108.9 47.3851L105.6 45.6851L107.8 42.4851C108 42.2851 108 41.9851 107.9 41.6851C107.8 41.3851 107.6 41.1851 107.4 41.1851L103.9 40.0851L105.6 36.5851C105.7 36.3851 105.7 36.0851 105.6 35.7851C105.5 35.5851 105.2 35.3851 105 35.3851L101.5 34.8851L102.7 31.0851C102.8 30.7851 102.7 30.4851 102.6 30.2851C102.4 30.0851 102.2 29.9851 101.9 29.9851L98.4 30.0851L99.1 26.1851C99.1 25.8851 99.1 25.5851 98.9 25.3851C98.7 25.1851 98.4 25.0851 98.1 25.1851L94.6 25.8851L94.7 21.8851C94.7 21.5851 94.6 21.2851 94.3 21.1851C94.1 20.9851 93.8 20.9851 93.5 21.0851L90.2 22.3851L89.7 18.4851C89.7 18.1851 89.5 17.9851 89.2 17.7851C88.9 17.6851 88.6 17.6851 88.4 17.7851L85.3 19.5851L84.3 15.8851C84.2 15.5851 84 15.3851 83.7 15.2851C83.4 15.1851 83.1 15.2851 82.9 15.4851L80.1 17.7851L78.6 14.2851C78.5 13.9851 78.2 13.7851 77.9 13.7851C77.6 13.7851 77.3 13.8851 77.1 14.0851L74.7 16.8851L72.7 13.6851C72.4 13.1851 71.6 13.1851 71.2 13.6851L69.2 16.8851L66.8 14.0851C66.6 13.8851 66.3 13.7851 66 13.7851C65.7 13.7851 65.5 13.9851 65.3 14.2851L63.8 17.7851L61 15.4851C60.8 15.2851 60.5 15.1851 60.2 15.2851C59.9 15.3851 59.7 15.5851 59.6 15.8851L58.6 19.5851L55.5 17.7851C55.3 17.6851 54.9 17.5851 54.7 17.7851C54.4 17.8851 54.3 18.1851 54.2 18.4851L53.7 22.3851L50.4 21.0851C50.1 20.9851 49.8 20.9851 49.6 21.1851C49.4 21.3851 49.2 21.5851 49.2 21.8851L49.3 25.8851L45.8 25.1851C45.5 25.0851 45.2 25.1851 45 25.3851C44.8 25.5851 44.7 25.8851 44.7 26.1851L45.4 30.0851L41.9 29.9851C41.6 29.9851 41.4 30.0851 41.2 30.2851C41 30.4851 41 30.7851 41.1 31.0851L42.3 34.8851L38.8 35.3851C38.5 35.3851 38.3 35.5851 38.2 35.7851C38.1 35.9851 38.1 36.2851 38.2 36.5851L39.9 40.0851L36.4 41.1851C36.1 41.2851 35.9 41.4851 35.9 41.6851C35.8 41.9851 35.9 42.1851 36 42.4851L38.2 45.6851L34.9 47.3851C34.7 47.4851 34.5 47.7851 34.5 47.9851C34.5 48.2851 34.5 48.4851 34.7 48.6851L37.4 51.4851L34.4 53.7851C34.2 53.9851 34.1 54.1851 34.1 54.4851C34.1 54.7851 34.2 54.9851 34.4 55.1851L37.4 57.4851L34.7 60.2851C34.5 60.4851 34.4 60.7851 34.5 60.9851C34.5 61.2851 34.7 61.4851 34.9 61.5851L38.2 63.2851L36 66.4851C35.8 66.6851 35.8 66.9851 35.9 67.2851C36 67.5851 36.2 67.7851 36.4 67.7851L39.9 68.8851L38.2 72.3851C38.1 72.5851 38.1 72.8851 38.2 73.1851C38.3 73.3851 38.6 73.5851 38.8 73.5851L42.3 74.0851L41.1 77.8851C41 78.1851 41.1 78.4851 41.2 78.6851C41.4 78.8851 41.6 78.9851 41.9 78.9851L45.4 78.8851L44.7 82.785C44.7 83.085 44.7 83.3851 45 83.5851C45.2 83.7851 45.5 83.885 45.8 83.785L49.3 83.0851L49.2 87.0851C49.2 87.3851 49.3 87.685 49.6 87.785C49.8 87.985 50.1 87.9851 50.4 87.8851L53.7 86.5851L54.2 90.4851C54.2 90.7851 54.4 90.9851 54.7 91.1851C55 91.2851 55.3 91.2851 55.5 91.1851L58.6 89.3851L59.6 93.0851C59.7 93.3851 59.9 93.5851 60.2 93.6851C60.5 93.7851 60.8 93.6851 61 93.4851L63.8 91.1851L65.3 94.6851C65.4 94.9851 65.7 95.1851 66 95.1851C66.3 95.1851 66.6 95.0851 66.8 94.8851L69.2 92.0851L71.2 95.285C71.4 95.585 71.6 95.6851 71.9 95.6851C72.2 95.6851 72.5 95.485 72.6 95.285L74.6 92.0851L77 94.8851C77.2 95.0851 77.5 95.1851 77.8 95.1851C78.1 95.1851 78.3 94.9851 78.5 94.6851L80 91.1851L82.8 93.4851C83 93.6851 83.3 93.7851 83.6 93.6851C83.9 93.5851 84.1 93.3851 84.2 93.0851L85.2 89.3851L88.3 91.1851C88.5 91.2851 88.9 91.3851 89.1 91.1851C89.4 91.0851 89.5 90.7851 89.6 90.4851L90.1 86.5851L93.4 87.8851C93.7 87.9851 94 87.985 94.2 87.785C94.4 87.585 94.6 87.3851 94.6 87.0851L94.5 83.0851L98 83.785C98.3 83.885 98.6 83.7851 98.8 83.5851C99 83.3851 99.1 83.085 99 82.785L98.3 78.8851L101.8 78.9851C102.1 78.9851 102.3 78.8851 102.5 78.6851C102.7 78.4851 102.7 78.1851 102.6 77.8851L101.4 74.0851L104.9 73.5851C105.2 73.5851 105.4 73.3851 105.5 73.1851C105.6 72.9851 105.6 72.6851 105.5 72.3851L103.8 68.8851L107.3 67.7851C107.6 67.6851 107.8 67.4851 107.8 67.2851C107.9 66.9851 107.8 66.7851 107.7 66.4851L105.5 63.2851L108.8 61.5851C109 61.4851 109.2 61.1851 109.2 60.9851C109.2 60.6851 109.2 60.4851 109 60.2851L106.3 57.4851L109.3 55.1851C109.6 54.9851 109.7 54.6851 109.7 54.4851Z" fill="#C2B500"/>
<path opacity="0.4" d="M109.7 54.4851C109.7 54.1851 109.6 53.9851 109.4 53.7851L106.4 51.4851L109.1 48.6851C109.3 48.4851 109.4 48.1851 109.3 47.9851C109.3 47.6851 109.1 47.4851 108.9 47.3851L105.6 45.6851L107.8 42.4851C108 42.2851 108 41.9851 107.9 41.6851C107.8 41.3851 107.6 41.1851 107.4 41.1851L103.9 40.0851L105.6 36.5851C105.7 36.3851 105.7 36.0851 105.6 35.7851C105.5 35.5851 105.2 35.3851 105 35.3851L101.5 34.8851L102.7 31.0851C102.8 30.7851 102.7 30.4851 102.6 30.2851C102.4 30.0851 102.2 29.9851 101.9 29.9851L98.4 30.0851L99.1 26.1851C99.1 25.8851 99.1 25.5851 98.9 25.3851C98.7 25.1851 98.4 25.0851 98.1 25.1851L94.6 25.8851L94.7 21.8851C94.7 21.5851 94.6 21.2851 94.3 21.1851C94.1 20.9851 93.8 20.9851 93.5 21.0851L90.2 22.3851L89.7 18.4851C89.7 18.1851 89.5 17.9851 89.2 17.7851C88.9 17.6851 88.6 17.6851 88.4 17.7851L85.3 19.5851L84.3 15.8851C84.2 15.5851 84 15.3851 83.7 15.2851C83.4 15.1851 83.1 15.2851 82.9 15.4851L80.1 17.7851L78.6 14.2851C78.5 13.9851 78.2 13.7851 77.9 13.7851C77.6 13.7851 77.3 13.8851 77.1 14.0851L74.7 16.8851L72.7 13.6851C72.4 13.1851 71.6 13.1851 71.2 13.6851L69.2 16.8851L66.8 14.0851C66.6 13.8851 66.3 13.7851 66 13.7851C65.7 13.7851 65.5 13.9851 65.3 14.2851L63.8 17.7851L61 15.4851C60.8 15.2851 60.5 15.1851 60.2 15.2851C59.9 15.3851 59.7 15.5851 59.6 15.8851L58.6 19.5851L55.5 17.7851C55.3 17.6851 54.9 17.5851 54.7 17.7851C54.4 17.8851 54.3 18.1851 54.2 18.4851L53.7 22.3851L50.4 21.0851C50.1 20.9851 49.8 20.9851 49.6 21.1851C49.4 21.3851 49.2 21.5851 49.2 21.8851L49.3 25.8851L45.8 25.1851C45.5 25.0851 45.2 25.1851 45 25.3851C44.8 25.5851 44.7 25.8851 44.7 26.1851L45.4 30.0851L41.9 29.9851C41.6 29.9851 41.4 30.0851 41.2 30.2851C41 30.4851 41 30.7851 41.1 31.0851L42.3 34.8851L38.8 35.3851C38.5 35.3851 38.3 35.5851 38.2 35.7851C38.1 35.9851 38.1 36.2851 38.2 36.5851L39.9 40.0851L36.4 41.1851C36.1 41.2851 35.9 41.4851 35.9 41.6851C35.8 41.9851 35.9 42.1851 36 42.4851L38.2 45.6851L34.9 47.3851C34.7 47.4851 34.5 47.7851 34.5 47.9851C34.5 48.2851 34.5 48.4851 34.7 48.6851L37.4 51.4851L34.4 53.7851C34.2 53.9851 34.1 54.1851 34.1 54.4851C34.1 54.7851 34.2 54.9851 34.4 55.1851L37.4 57.4851L34.7 60.2851C34.5 60.4851 34.4 60.7851 34.5 60.9851C34.5 61.2851 34.7 61.4851 34.9 61.5851L38.2 63.2851L36 66.4851C35.8 66.6851 35.8 66.9851 35.9 67.2851C36 67.5851 36.2 67.7851 36.4 67.7851L39.9 68.8851L38.2 72.3851C38.1 72.5851 38.1 72.8851 38.2 73.1851C38.3 73.3851 38.6 73.5851 38.8 73.5851L42.3 74.0851L41.1 77.8851C41 78.1851 41.1 78.4851 41.2 78.6851C41.4 78.8851 41.6 78.9851 41.9 78.9851L45.4 78.8851L44.7 82.785C44.7 83.085 44.7 83.3851 45 83.5851C45.2 83.7851 45.5 83.885 45.8 83.785L49.3 83.0851L49.2 87.0851C49.2 87.3851 49.3 87.685 49.6 87.785C49.8 87.985 50.1 87.9851 50.4 87.8851L53.7 86.5851L54.2 90.4851C54.2 90.7851 54.4 90.9851 54.7 91.1851C55 91.2851 55.3 91.2851 55.5 91.1851L58.6 89.3851L59.6 93.0851C59.7 93.3851 59.9 93.5851 60.2 93.6851C60.5 93.7851 60.8 93.6851 61 93.4851L63.8 91.1851L65.3 94.6851C65.4 94.9851 65.7 95.1851 66 95.1851C66.3 95.1851 66.6 95.0851 66.8 94.8851L69.2 92.0851L71.2 95.285C71.4 95.585 71.6 95.6851 71.9 95.6851C72.2 95.6851 72.5 95.485 72.6 95.285L74.6 92.0851L77 94.8851C77.2 95.0851 77.5 95.1851 77.8 95.1851C78.1 95.1851 78.3 94.9851 78.5 94.6851L80 91.1851L82.8 93.4851C83 93.6851 83.3 93.7851 83.6 93.6851C83.9 93.5851 84.1 93.3851 84.2 93.0851L85.2 89.3851L88.3 91.1851C88.5 91.2851 88.9 91.3851 89.1 91.1851C89.4 91.0851 89.5 90.7851 89.6 90.4851L90.1 86.5851L93.4 87.8851C93.7 87.9851 94 87.985 94.2 87.785C94.4 87.585 94.6 87.3851 94.6 87.0851L94.5 83.0851L98 83.785C98.3 83.885 98.6 83.7851 98.8 83.5851C99 83.3851 99.1 83.085 99 82.785L98.3 78.8851L101.8 78.9851C102.1 78.9851 102.3 78.8851 102.5 78.6851C102.7 78.4851 102.7 78.1851 102.6 77.8851L101.4 74.0851L104.9 73.5851C105.2 73.5851 105.4 73.3851 105.5 73.1851C105.6 72.9851 105.6 72.6851 105.5 72.3851L103.8 68.8851L107.3 67.7851C107.6 67.6851 107.8 67.4851 107.8 67.2851C107.9 66.9851 107.8 66.7851 107.7 66.4851L105.5 63.2851L108.8 61.5851C109 61.4851 109.2 61.1851 109.2 60.9851C109.2 60.6851 109.2 60.4851 109 60.2851L106.3 57.4851L109.3 55.1851C109.6 54.9851 109.7 54.6851 109.7 54.4851Z" fill="url(#paint0_linear_191_1217)"/>
<path opacity="0.6" d="M109.7 54.4851C109.7 54.1851 109.6 53.9851 109.4 53.7851L106.4 51.4851L109.1 48.6851C109.3 48.4851 109.4 48.1851 109.3 47.9851C109.3 47.6851 109.1 47.4851 108.9 47.3851L105.6 45.6851L107.8 42.4851C108 42.2851 108 41.9851 107.9 41.6851C107.8 41.3851 107.6 41.1851 107.4 41.1851L103.9 40.0851L105.6 36.5851C105.7 36.3851 105.7 36.0851 105.6 35.7851C105.5 35.5851 105.2 35.3851 105 35.3851L101.5 34.8851L102.7 31.0851C102.8 30.7851 102.7 30.4851 102.6 30.2851C102.4 30.0851 102.2 29.9851 101.9 29.9851L98.4 30.0851L99.1 26.1851C99.1 25.8851 99.1 25.5851 98.9 25.3851C98.7 25.1851 98.4 25.0851 98.1 25.1851L94.6 25.8851L94.7 21.8851C94.7 21.5851 94.6 21.2851 94.3 21.1851C94.1 20.9851 93.8 20.9851 93.5 21.0851L90.2 22.3851L89.7 18.4851C89.7 18.1851 89.5 17.9851 89.2 17.7851C88.9 17.6851 88.6 17.6851 88.4 17.7851L85.3 19.5851L84.3 15.8851C84.2 15.5851 84 15.3851 83.7 15.2851C83.4 15.1851 83.1 15.2851 82.9 15.4851L80.1 17.7851L78.6 14.2851C78.5 13.9851 78.2 13.7851 77.9 13.7851C77.6 13.7851 77.3 13.8851 77.1 14.0851L74.7 16.8851L72.7 13.6851C72.4 13.1851 71.6 13.1851 71.2 13.6851L69.2 16.8851L66.8 14.0851C66.6 13.8851 66.3 13.7851 66 13.7851C65.7 13.7851 65.5 13.9851 65.3 14.2851L63.8 17.7851L61 15.4851C60.8 15.2851 60.5 15.1851 60.2 15.2851C59.9 15.3851 59.7 15.5851 59.6 15.8851L58.6 19.5851L55.5 17.7851C55.3 17.6851 54.9 17.5851 54.7 17.7851C54.4 17.8851 54.3 18.1851 54.2 18.4851L53.7 22.3851L50.4 21.0851C50.1 20.9851 49.8 20.9851 49.6 21.1851C49.4 21.3851 49.2 21.5851 49.2 21.8851L49.3 25.8851L45.8 25.1851C45.5 25.0851 45.2 25.1851 45 25.3851C44.8 25.5851 44.7 25.8851 44.7 26.1851L45.4 30.0851L41.9 29.9851C41.6 29.9851 41.4 30.0851 41.2 30.2851C41 30.4851 41 30.7851 41.1 31.0851L42.3 34.8851L38.8 35.3851C38.5 35.3851 38.3 35.5851 38.2 35.7851C38.1 35.9851 38.1 36.2851 38.2 36.5851L39.9 40.0851L36.4 41.1851C36.1 41.2851 35.9 41.4851 35.9 41.6851C35.8 41.9851 35.9 42.1851 36 42.4851L38.2 45.6851L34.9 47.3851C34.7 47.4851 34.5 47.7851 34.5 47.9851C34.5 48.2851 34.5 48.4851 34.7 48.6851L37.4 51.4851L34.4 53.7851C34.2 53.9851 34.1 54.1851 34.1 54.4851C34.1 54.7851 34.2 54.9851 34.4 55.1851L37.4 57.4851L34.7 60.2851C34.5 60.4851 34.4 60.7851 34.5 60.9851C34.5 61.2851 34.7 61.4851 34.9 61.5851L38.2 63.2851L36 66.4851C35.8 66.6851 35.8 66.9851 35.9 67.2851C36 67.5851 36.2 67.7851 36.4 67.7851L39.9 68.8851L38.2 72.3851C38.1 72.5851 38.1 72.8851 38.2 73.1851C38.3 73.3851 38.6 73.5851 38.8 73.5851L42.3 74.0851L41.1 77.8851C41 78.1851 41.1 78.4851 41.2 78.6851C41.4 78.8851 41.6 78.9851 41.9 78.9851L45.4 78.8851L44.7 82.785C44.7 83.085 44.7 83.3851 45 83.5851C45.2 83.7851 45.5 83.885 45.8 83.785L49.3 83.0851L49.2 87.0851C49.2 87.3851 49.3 87.685 49.6 87.785C49.8 87.985 50.1 87.9851 50.4 87.8851L53.7 86.5851L54.2 90.4851C54.2 90.7851 54.4 90.9851 54.7 91.1851C55 91.2851 55.3 91.2851 55.5 91.1851L58.6 89.3851L59.6 93.0851C59.7 93.3851 59.9 93.5851 60.2 93.6851C60.5 93.7851 60.8 93.6851 61 93.4851L63.8 91.1851L65.3 94.6851C65.4 94.9851 65.7 95.1851 66 95.1851C66.3 95.1851 66.6 95.0851 66.8 94.8851L69.2 92.0851L71.2 95.285C71.4 95.585 71.6 95.6851 71.9 95.6851C72.2 95.6851 72.5 95.485 72.6 95.285L74.6 92.0851L77 94.8851C77.2 95.0851 77.5 95.1851 77.8 95.1851C78.1 95.1851 78.3 94.9851 78.5 94.6851L80 91.1851L82.8 93.4851C83 93.6851 83.3 93.7851 83.6 93.6851C83.9 93.5851 84.1 93.3851 84.2 93.0851L85.2 89.3851L88.3 91.1851C88.5 91.2851 88.9 91.3851 89.1 91.1851C89.4 91.0851 89.5 90.7851 89.6 90.4851L90.1 86.5851L93.4 87.8851C93.7 87.9851 94 87.985 94.2 87.785C94.4 87.585 94.6 87.3851 94.6 87.0851L94.5 83.0851L98 83.785C98.3 83.885 98.6 83.7851 98.8 83.5851C99 83.3851 99.1 83.085 99 82.785L98.3 78.8851L101.8 78.9851C102.1 78.9851 102.3 78.8851 102.5 78.6851C102.7 78.4851 102.7 78.1851 102.6 77.8851L101.4 74.0851L104.9 73.5851C105.2 73.5851 105.4 73.3851 105.5 73.1851C105.6 72.9851 105.6 72.6851 105.5 72.3851L103.8 68.8851L107.3 67.7851C107.6 67.6851 107.8 67.4851 107.8 67.2851C107.9 66.9851 107.8 66.7851 107.7 66.4851L105.5 63.2851L108.8 61.5851C109 61.4851 109.2 61.1851 109.2 60.9851C109.2 60.6851 109.2 60.4851 109 60.2851L106.3 57.4851L109.3 55.1851C109.6 54.9851 109.7 54.6851 109.7 54.4851Z" fill="url(#paint1_radial_191_1217)"/>
<path d="M28.9999 30.0847C28.9999 30.0847 29.1999 25.6847 22.8999 13.2847C22.8999 13.2847 27.9999 8.98466 29.2999 12.5847C29.2999 12.5847 31.0999 21.4847 30.5999 30.0847H28.9999Z" fill="#AF5731"/>
<path d="M74.5 57.1849C74.4 56.8849 74.3 56.6849 74 56.5849L70.6 54.9849L72.7 51.7849C72.8 51.5849 72.9 51.2849 72.8 50.9849C72.7 50.6849 72.5 50.5849 72.2 50.4849L68.6 49.4849L70.2 45.8849C70.3 45.6849 70.3 45.3849 70.2 45.0849C70.1 44.8849 69.8 44.6849 69.6 44.6849L66 44.2849L67 40.4849C67.1 40.1849 67 39.9849 66.8 39.6849C66.6 39.4849 66.4 39.3849 66.1 39.3849L62.5 39.5849L62.9 35.5849C62.9 35.2849 62.8 35.0849 62.6 34.8849C62.4 34.6849 62.1 34.6849 61.8 34.6849L58.4 35.4849L58.3 31.4849C58.3 31.1849 58.1 30.9849 57.9 30.7849C57.7 30.5849 57.4 30.5849 57.1 30.6849L53.9 32.0849L53.2 28.1849C53.2 27.8849 53 27.6849 52.7 27.5849C52.4 27.4849 52.1 27.4849 51.9 27.6849L48.9 29.5849L47.7 25.8849C47.6 25.5849 47.4 25.3849 47.1 25.2849C46.8 25.1849 46.5 25.2849 46.3 25.4849L43.7 27.8849L42 24.3849C41.9 24.0849 41.6 23.9849 41.3 23.8849C41 23.8849 40.7 23.9849 40.5 24.1849L38.3 26.9849L36.1 23.8849C35.9 23.6849 35.7 23.4849 35.4 23.4849C35.1 23.4849 34.8 23.6849 34.7 23.8849L32.9 27.0849L30.3 24.3849C29.9 23.9849 29.1 24.0849 28.9 24.6849L27.6 28.1849L24.7 25.8849C24.5 25.6849 24.2 25.6849 23.9 25.7849C23.6 25.8849 23.4 26.0849 23.4 26.3849L22.6 30.0849L19.4 28.3849C19.1 28.2849 18.8 28.2849 18.6 28.3849C18.3 28.4849 18.2 28.7849 18.2 29.0849L18 32.9849L14.6 31.7849C14.3 31.6849 14 31.7849 13.8 31.8849C13.6 32.0849 13.4 32.3849 13.5 32.5849L13.8 36.4849L10.3 35.8849C9.99999 35.8849 9.7 35.8849 9.5 36.1849C9.3 36.3849 9.19999 36.6849 9.29999 36.9849L10.2 40.8849H6.70001C6.40001 40.8849 6.2 40.9849 6 41.2849C5.8 41.4849 5.79996 41.7849 5.89996 42.0849L7.29999 45.7849L3.79999 46.3849C3.49999 46.4849 3.30001 46.5849 3.20001 46.8849C3.10001 47.1849 3.10001 47.3849 3.20001 47.6849L5.09998 51.1849L1.70001 52.3849C1.40001 52.4849 1.20001 52.6849 1.20001 52.9849C1.10001 53.2849 1.19999 53.4849 1.29999 53.7849L3.70001 56.8849L0.5 58.6849C0.3 58.7849 0.0999756 59.0849 0.0999756 59.2849C0.0999756 59.5849 0.199963 59.7849 0.399963 59.9849L3.20001 62.6849L0.299988 64.9849C0.0999878 65.1849 0 65.3849 0 65.6849C0 65.9849 0.0999634 66.1849 0.399963 66.3849L3.59998 68.5849L1.09998 71.3849C0.899976 71.5849 0.799963 71.8849 0.899963 72.0849C0.999963 72.3849 1.09996 72.5849 1.39996 72.6849L4.79999 74.2849L2.70001 77.4849C2.60001 77.6849 2.49998 77.9849 2.59998 78.2849C2.69998 78.5849 2.90001 78.6849 3.20001 78.7849L6.70001 79.7849L5.09998 83.3849C4.99998 83.5849 4.99998 83.8849 5.09998 84.1849C5.19998 84.3849 5.50001 84.5849 5.70001 84.5849L9.29999 84.9849L8.29999 88.7849C8.19999 89.0849 8.3 89.2849 8.5 89.5849C8.7 89.7849 8.90001 89.8849 9.20001 89.8849L12.8 89.6849L12.4 93.6849C12.4 93.9849 12.5 94.1849 12.7 94.3849C12.9 94.5849 13.2 94.6849 13.5 94.5849L16.9 93.7849L17 97.7849C17 98.0849 17.2 98.2849 17.4 98.4849C17.6 98.6849 17.9 98.6849 18.2 98.5849L21.4 97.1849L22.1 101.085C22.1 101.385 22.3 101.585 22.6 101.685C22.9 101.785 23.2 101.785 23.4 101.585L26.4 99.6849L27.6 103.385C27.7 103.685 27.9 103.885 28.2 103.985C28.5 104.085 28.8 103.985 29 103.785L31.6 101.385L33.3 104.885C33.4 105.185 33.7 105.285 34 105.385C34.3 105.385 34.6 105.285 34.8 105.085L37 102.285L39.2 105.385C39.4 105.585 39.6 105.785 39.9 105.785C40.2 105.785 40.5 105.585 40.6 105.385L42.4 102.185L45 104.885C45.2 105.085 45.5 105.185 45.8 105.185C46.1 105.085 46.3 104.885 46.4 104.685L47.7 101.185L50.6 103.485C50.8 103.685 51.1 103.685 51.4 103.585C51.7 103.485 51.9 103.285 51.9 102.985L52.7 99.2849L55.9 100.985C56.2 101.085 56.5 101.085 56.7 100.985C57 100.885 57.1 100.585 57.1 100.285L57.3 96.3849L60.7 97.5849C61 97.6849 61.3 97.5849 61.5 97.4849C61.7 97.2849 61.9 96.9849 61.8 96.7849L61.5 92.8849L65 93.4849C65.3 93.5849 65.6 93.4849 65.8 93.1849C66 92.9849 66.1 92.6849 66 92.3849L65.1 88.4849H68.6C68.9 88.4849 69.1 88.3849 69.3 88.0849C69.5 87.8849 69.5 87.5849 69.4 87.2849L68 83.5849L71.5 82.9849C71.8 82.8849 72 82.7849 72.1 82.4849C72.2 82.1849 72.2 81.9849 72.1 81.6849L70.2 78.1849L73.6 76.9849C73.9 76.8849 74.1 76.6849 74.1 76.3849C74.2 76.0849 74.1 75.8849 74 75.5849L71.6 72.4849L74.8 70.6849C75 70.5849 75.2 70.2849 75.2 70.0849C75.2 69.7849 75.1 69.5849 74.9 69.3849L72.1 66.6849L75 64.3849C75.2 64.1849 75.3 63.9849 75.3 63.6849C75.3 63.3849 75.2 63.1849 74.9 62.9849L71.7 60.7849L74.2 57.9849C74.4 57.6849 74.5 57.4849 74.5 57.1849Z" fill="#CCBE00"/>
<path opacity="0.4" d="M74.5 57.1849C74.4 56.8849 74.3 56.6849 74 56.5849L70.6 54.9849L72.7 51.7849C72.8 51.5849 72.9 51.2849 72.8 50.9849C72.7 50.6849 72.5 50.5849 72.2 50.4849L68.6 49.4849L70.2 45.8849C70.3 45.6849 70.3 45.3849 70.2 45.0849C70.1 44.8849 69.8 44.6849 69.6 44.6849L66 44.2849L67 40.4849C67.1 40.1849 67 39.9849 66.8 39.6849C66.6 39.4849 66.4 39.3849 66.1 39.3849L62.5 39.5849L62.9 35.5849C62.9 35.2849 62.8 35.0849 62.6 34.8849C62.4 34.6849 62.1 34.6849 61.8 34.6849L58.4 35.4849L58.3 31.4849C58.3 31.1849 58.1 30.9849 57.9 30.7849C57.7 30.5849 57.4 30.5849 57.1 30.6849L53.9 32.0849L53.2 28.1849C53.2 27.8849 53 27.6849 52.7 27.5849C52.4 27.4849 52.1 27.4849 51.9 27.6849L48.9 29.5849L47.7 25.8849C47.6 25.5849 47.4 25.3849 47.1 25.2849C46.8 25.1849 46.5 25.2849 46.3 25.4849L43.7 27.8849L42 24.3849C41.9 24.0849 41.6 23.9849 41.3 23.8849C41 23.8849 40.7 23.9849 40.5 24.1849L38.3 26.9849L36.1 23.8849C35.9 23.6849 35.7 23.4849 35.4 23.4849C35.1 23.4849 34.8 23.6849 34.7 23.8849L32.9 27.0849L30.3 24.3849C29.9 23.9849 29.1 24.0849 28.9 24.6849L27.6 28.1849L24.7 25.8849C24.5 25.6849 24.2 25.6849 23.9 25.7849C23.6 25.8849 23.4 26.0849 23.4 26.3849L22.6 30.0849L19.4 28.3849C19.1 28.2849 18.8 28.2849 18.6 28.3849C18.3 28.4849 18.2 28.7849 18.2 29.0849L18 32.9849L14.6 31.7849C14.3 31.6849 14 31.7849 13.8 31.8849C13.6 32.0849 13.4 32.3849 13.5 32.5849L13.8 36.4849L10.3 35.8849C9.99999 35.8849 9.7 35.8849 9.5 36.1849C9.3 36.3849 9.19999 36.6849 9.29999 36.9849L10.2 40.8849H6.70001C6.40001 40.8849 6.2 40.9849 6 41.2849C5.8 41.4849 5.79996 41.7849 5.89996 42.0849L7.29999 45.7849L3.79999 46.3849C3.49999 46.4849 3.30001 46.5849 3.20001 46.8849C3.10001 47.1849 3.10001 47.3849 3.20001 47.6849L5.09998 51.1849L1.70001 52.3849C1.40001 52.4849 1.20001 52.6849 1.20001 52.9849C1.10001 53.2849 1.19999 53.4849 1.29999 53.7849L3.70001 56.8849L0.5 58.6849C0.3 58.7849 0.0999756 59.0849 0.0999756 59.2849C0.0999756 59.5849 0.199963 59.7849 0.399963 59.9849L3.20001 62.6849L0.299988 64.9849C0.0999878 65.1849 0 65.3849 0 65.6849C0 65.9849 0.0999634 66.1849 0.399963 66.3849L3.59998 68.5849L1.09998 71.3849C0.899976 71.5849 0.799963 71.8849 0.899963 72.0849C0.999963 72.3849 1.09996 72.5849 1.39996 72.6849L4.79999 74.2849L2.70001 77.4849C2.60001 77.6849 2.49998 77.9849 2.59998 78.2849C2.69998 78.5849 2.90001 78.6849 3.20001 78.7849L6.70001 79.7849L5.09998 83.3849C4.99998 83.5849 4.99998 83.8849 5.09998 84.1849C5.19998 84.3849 5.50001 84.5849 5.70001 84.5849L9.29999 84.9849L8.29999 88.7849C8.19999 89.0849 8.3 89.2849 8.5 89.5849C8.7 89.7849 8.90001 89.8849 9.20001 89.8849L12.8 89.6849L12.4 93.6849C12.4 93.9849 12.5 94.1849 12.7 94.3849C12.9 94.5849 13.2 94.6849 13.5 94.5849L16.9 93.7849L17 97.7849C17 98.0849 17.2 98.2849 17.4 98.4849C17.6 98.6849 17.9 98.6849 18.2 98.5849L21.4 97.1849L22.1 101.085C22.1 101.385 22.3 101.585 22.6 101.685C22.9 101.785 23.2 101.785 23.4 101.585L26.4 99.6849L27.6 103.385C27.7 103.685 27.9 103.885 28.2 103.985C28.5 104.085 28.8 103.985 29 103.785L31.6 101.385L33.3 104.885C33.4 105.185 33.7 105.285 34 105.385C34.3 105.385 34.6 105.285 34.8 105.085L37 102.285L39.2 105.385C39.4 105.585 39.6 105.785 39.9 105.785C40.2 105.785 40.5 105.585 40.6 105.385L42.4 102.185L45 104.885C45.2 105.085 45.5 105.185 45.8 105.185C46.1 105.085 46.3 104.885 46.4 104.685L47.7 101.185L50.6 103.485C50.8 103.685 51.1 103.685 51.4 103.585C51.7 103.485 51.9 103.285 51.9 102.985L52.7 99.2849L55.9 100.985C56.2 101.085 56.5 101.085 56.7 100.985C57 100.885 57.1 100.585 57.1 100.285L57.3 96.3849L60.7 97.5849C61 97.6849 61.3 97.5849 61.5 97.4849C61.7 97.2849 61.9 96.9849 61.8 96.7849L61.5 92.8849L65 93.4849C65.3 93.5849 65.6 93.4849 65.8 93.1849C66 92.9849 66.1 92.6849 66 92.3849L65.1 88.4849H68.6C68.9 88.4849 69.1 88.3849 69.3 88.0849C69.5 87.8849 69.5 87.5849 69.4 87.2849L68 83.5849L71.5 82.9849C71.8 82.8849 72 82.7849 72.1 82.4849C72.2 82.1849 72.2 81.9849 72.1 81.6849L70.2 78.1849L73.6 76.9849C73.9 76.8849 74.1 76.6849 74.1 76.3849C74.2 76.0849 74.1 75.8849 74 75.5849L71.6 72.4849L74.8 70.6849C75 70.5849 75.2 70.2849 75.2 70.0849C75.2 69.7849 75.1 69.5849 74.9 69.3849L72.1 66.6849L75 64.3849C75.2 64.1849 75.3 63.9849 75.3 63.6849C75.3 63.3849 75.2 63.1849 74.9 62.9849L71.7 60.7849L74.2 57.9849C74.4 57.6849 74.5 57.4849 74.5 57.1849Z" fill="url(#paint2_linear_191_1217)"/>
<path d="M44.6238 98.5148C61.2449 95.1695 71.6538 77.228 67.8727 58.4412C64.0916 39.6545 47.5523 27.1367 30.9312 30.482C14.31 33.8272 3.90113 51.7687 7.68225 70.5555C11.4634 89.3422 28.0027 101.86 44.6238 98.5148Z" fill="#FFF2D5"/>
<path d="M14.7 65.7848C17.3 66.8848 32.1999 64.0848 33.2999 61.6848C34.9999 57.8848 30.9999 39.3848 29.2999 37.9848C27.5999 36.5848 16.1999 43.2848 13.2999 50.7848C10.3999 58.1848 12 64.6848 14.7 65.7848Z" fill="#FFC800"/>
<path d="M59.5998 56.7846C57.5998 58.7846 42.7998 61.9846 40.8998 60.1846C37.8998 57.2846 34.3998 38.6846 35.3998 36.7846C36.3998 34.8846 49.4998 36.5846 55.0998 42.3846C60.6998 48.0846 61.6998 54.7846 59.5998 56.7846Z" fill="#FFC800"/>
<path d="M16 72.3847C18 70.3847 32.8 67.1847 34.7 68.9847C37.7 71.8847 41.2 90.4847 40.2 92.3847C39.2 94.2847 26.1 92.5846 20.5 86.7846C15 81.0846 14 74.3847 16 72.3847Z" fill="#FFC800"/>
<path d="M61 63.3846C58.4 62.2846 43.4999 65.0846 42.3999 67.4846C40.6999 71.2846 44.6999 89.7846 46.3999 91.1846C48.0999 92.5846 59.4999 85.8846 62.3999 78.3846C65.2999 70.8846 63.6 64.3846 61 63.3846Z" fill="#FFC800"/>
<defs>
<linearGradient id="paint0_linear_191_1217" x1="72.0927" y1="95.292" x2="72.0927" y2="9.73566" gradientUnits="userSpaceOnUse">
<stop offset="0.285" stop-color="white" stop-opacity="0"/>
<stop offset="0.9322" stop-color="white" stop-opacity="0.9051"/>
<stop offset="1" stop-color="white"/>
</linearGradient>
<radialGradient id="paint1_radial_191_1217" cx="0" cy="0" r="1" gradientUnits="userSpaceOnUse" gradientTransform="translate(38.9542 65.3254) scale(51.2294 51.2294)">
<stop offset="0.0666047"/>
<stop offset="1" stop-color="#242422" stop-opacity="0"/>
</radialGradient>
<linearGradient id="paint2_linear_191_1217" x1="45.662" y1="104.636" x2="28.781" y2="20.762" gradientUnits="userSpaceOnUse">
<stop offset="0.285" stop-color="white" stop-opacity="0"/>
<stop offset="0.9322" stop-color="white" stop-opacity="0.9051"/>
<stop offset="1" stop-color="white"/>
</linearGradient>
</defs>
</svg>
