<svg width="107" height="95" viewBox="0 0 107 95" fill="none" xmlns="http://www.w3.org/2000/svg">
<path d="M107 54.6847C107 72.3847 91.7001 86.7847 72.9001 86.7847C54.1001 86.7847 38.8 72.3847 38.8 54.6847C38.8 36.9847 54.1001 20.7847 72.9001 20.7847C91.7001 20.7847 107 36.9847 107 54.6847Z" fill="#7D015E"/>
<path opacity="0.4" d="M107 54.6847C107 72.3847 91.7001 86.7847 72.9001 86.7847C54.1001 86.7847 38.8 72.3847 38.8 54.6847C38.8 36.9847 54.1001 20.7847 72.9001 20.7847C91.7001 20.7847 107 36.9847 107 54.6847Z" fill="url(#paint0_linear_191_1223)"/>
<path d="M61.2999 19.5844C61.2999 19.5844 39 17.7844 41 31.2844C41.5 34.7844 51.7999 39.8844 59.7999 32.5844C59.7999 32.5844 63.3 39.4844 72.4 39.2844C82.7 39.0844 84.0999 32.5844 84.0999 32.5844C84.0999 32.5844 95.7999 39.7844 100.8 31.2844C102.9 27.6844 98.5999 15.9844 81.7999 20.5844C81.8999 20.5844 71.0999 12.7844 61.2999 19.5844Z" fill="#86BA00"/>
<path opacity="0.4" d="M61.2999 19.5844C61.2999 19.5844 39 17.7844 41 31.2844C41.5 34.7844 51.7999 39.8844 59.7999 32.5844C59.7999 32.5844 63.3 39.4844 72.4 39.2844C82.7 39.0844 84.0999 32.5844 84.0999 32.5844C84.0999 32.5844 95.7999 39.7844 100.8 31.2844C102.9 27.6844 98.5999 15.9844 81.7999 20.5844C81.8999 20.5844 71.0999 12.7844 61.2999 19.5844Z" fill="url(#paint1_linear_191_1223)"/>
<path opacity="0.6" d="M99.1 33.3848C99.8 32.7848 100.4 32.0848 100.9 31.1848C103 27.5848 98.7001 15.8848 81.9001 20.4848C81.9001 20.4848 71.1 12.6848 61.3 19.4848C61.3 19.4848 39.0001 17.6848 41.0001 31.1848C41.2001 32.5848 42.9 34.1848 45.3 35.1848C41.2 40.7848 38.8 47.5848 38.8 54.6848C38.8 72.3848 54.1001 86.7848 72.9001 86.7848C91.7001 86.7848 107 72.3848 107 54.6848C107 46.8848 104 39.3848 99.1 33.3848Z" fill="url(#paint2_radial_191_1223)"/>
<path d="M70.5 18.7846C70.5 18.7846 72.9 11.0846 66.1 2.08457C66.1 2.08457 68 -2.01543 73.3 1.28457C73.3 1.28457 74.7 7.78457 72.5 18.6846C71.4 19.8846 70.5 18.7846 70.5 18.7846Z" fill="#82B500"/>
<path d="M68.2 62.2848C68.2 79.9848 52.9 94.3848 34.1 94.3848C15.3 94.3848 0 79.9848 0 62.2848C0 44.5848 15.3 28.3848 34.1 28.3848C52.9 28.3848 68.2 44.5848 68.2 62.2848Z" fill="#7D015E"/>
<path opacity="0.4" d="M68.2 62.2848C68.2 79.9848 52.9 94.3848 34.1 94.3848C15.3 94.3848 0 79.9848 0 62.2848C0 44.5848 15.3 28.3848 34.1 28.3848C52.9 28.3848 68.2 44.5848 68.2 62.2848Z" fill="url(#paint3_linear_191_1223)"/>
<path opacity="0.6" d="M66 62.1848C66 78.7848 51.6999 92.1848 34.0999 92.1848C16.4999 92.1848 2.19995 78.7848 2.19995 62.1848C2.19995 45.5848 16.4999 30.3848 34.0999 30.3848C51.6999 30.4848 66 45.5848 66 62.1848Z" fill="#F00F47"/>
<path d="M43.3001 41.7848C41.9001 36.4848 38.3001 34.8848 34.1001 34.8848C29.9001 34.8848 26.3001 36.5848 24.9001 41.7848C23.5001 47.0848 34.1001 57.8848 34.1001 57.8848C34.1001 57.8848 44.8001 47.0848 43.3001 41.7848Z" fill="#FFEEE8"/>
<path d="M17.3001 44.8846C11.9001 43.7846 9.80005 47.2846 8.60005 51.2846C7.40005 55.2846 8.80005 59.7846 14.2001 59.7846C22.3001 59.7846 29.4001 58.6846 29.4001 58.6846C29.4001 58.6846 22.7001 45.8846 17.3001 44.8846Z" fill="#FFEEE8"/>
<path d="M50.9001 44.8846C56.3001 43.7846 58.4 47.2846 59.6 51.2846C60.8 55.2846 59.4001 59.7846 54.0001 59.7846C45.9001 59.7846 38.8 58.6846 38.8 58.6846C38.8 58.6846 45.5001 45.8846 50.9001 44.8846Z" fill="#FFEEE8"/>
<path d="M43.3001 80.8847C41.9001 86.1847 37.7001 87.7847 34.1001 87.7847C30.5001 87.7847 26.3001 86.0847 24.9001 80.8847C23.5001 75.5847 34.1001 64.7847 34.1001 64.7847C34.1001 64.7847 44.8001 75.6847 43.3001 80.8847Z" fill="#FFEEE8"/>
<path d="M17.3001 77.7848C11.9001 78.8848 9.80005 75.3848 8.60005 71.3848C7.40005 67.3848 8.80005 62.8848 14.2001 62.8848C22.3001 62.8848 29.4001 63.9848 29.4001 63.9848C29.4001 63.9848 22.7001 76.7848 17.3001 77.7848Z" fill="#FFEEE8"/>
<path d="M50.9001 77.7848C56.3001 78.8848 58.4 75.3848 59.6 71.3848C60.8 67.3848 59.4001 62.8848 54.0001 62.8848C45.9001 62.8848 38.8 63.9848 38.8 63.9848C38.8 63.9848 45.5001 76.7848 50.9001 77.7848Z" fill="#FFEEE8"/>
<defs>
<linearGradient id="paint0_linear_191_1223" x1="72.8878" y1="87.2719" x2="72.8878" y2="21.5813" gradientUnits="userSpaceOnUse">
<stop offset="0.1522" stop-color="white" stop-opacity="0"/>
<stop offset="1" stop-color="white"/>
</linearGradient>
<linearGradient id="paint1_linear_191_1223" x1="71.0874" y1="40.7716" x2="71.0874" y2="14.6948" gradientUnits="userSpaceOnUse">
<stop offset="0.1522" stop-color="white" stop-opacity="0"/>
<stop offset="1" stop-color="white"/>
</linearGradient>
<radialGradient id="paint2_radial_191_1223" cx="0" cy="0" r="1" gradientUnits="userSpaceOnUse" gradientTransform="translate(42.2726 59.8536) scale(40.3358 40.3358)">
<stop/>
<stop offset="0.5615" stop-color="#171716" stop-opacity="0.4377"/>
<stop offset="0.9986" stop-color="#242422" stop-opacity="0"/>
</radialGradient>
<linearGradient id="paint3_linear_191_1223" x1="34.1084" y1="94.8132" x2="34.1084" y2="6.46086" gradientUnits="userSpaceOnUse">
<stop offset="0.285" stop-color="white" stop-opacity="0"/>
<stop offset="1" stop-color="white"/>
</linearGradient>
</defs>
</svg>
