<svg width="115" height="100" viewBox="0 0 115 100" fill="none" xmlns="http://www.w3.org/2000/svg">
<path d="M89.5 49C89.5 74.8 69.5 93.9 44.8 93.9C20.1 93.9 0 74.8 0 49C0 23.2 20 0 44.7 0C69.4 0 89.5 23.2 89.5 49Z" fill="#935503"/>
<path opacity="0.6" d="M29.7 11.8999C29.7 11.8999 -7.3 44.7999 32.9 86.7999C32.8 86.7999 -20.5 54.5999 29.7 11.8999Z" fill="#C79452"/>
<path opacity="0.6" d="M59.1 12.2002C59.1 12.2002 96.1 45.8002 55.9 88.6002C55.9 88.6002 109.3 55.8002 59.1 12.2002Z" fill="#C79452"/>
<path opacity="0.6" d="M49.2 13C49.2 13 69.0999 44.3 51.5999 83.8C51.5999 83.8 57.9 41.3 49.2 13Z" fill="#C79452"/>
<path opacity="0.6" d="M34.8001 14.5C34.8001 14.5 19.7001 39.1 37.6 80.4C37.6 80.4 28.9001 36.8 34.8001 14.5Z" fill="#C79452"/>
<path d="M39.7 7.4001C41.6329 7.4001 43.2 6.54944 43.2 5.5001C43.2 4.45075 41.6329 3.6001 39.7 3.6001C37.767 3.6001 36.2 4.45075 36.2 5.5001C36.2 6.54944 37.767 7.4001 39.7 7.4001Z" fill="#6E3F03"/>
<path d="M53.2999 4.6001C53.2999 5.4001 52.1 6.1001 50.5 6.1001C49 6.1001 47.7 5.4001 47.7 4.6001C47.7 3.8001 48.9 3.1001 50.5 3.1001C52.1 3.1001 53.2999 3.8001 53.2999 4.6001Z" fill="#6E3F03"/>
<path d="M45.7 10.4998C47.4121 10.4998 48.8 9.78346 48.8 8.8998C48.8 8.01615 47.4121 7.2998 45.7 7.2998C43.9879 7.2998 42.6 8.01615 42.6 8.8998C42.6 9.78346 43.9879 10.4998 45.7 10.4998Z" fill="#6E3F03"/>
<path opacity="0.4" d="M44.8 0C20.1 0 0.0999756 23.1 0.0999756 49C0.0999756 74.9 20.1 93.9 44.8 93.9C69.5 93.9 89.5 74.8 89.5 49C89.5 23.2 69.5 0 44.8 0Z" fill="url(#paint0_linear_191_1220)"/>
<path opacity="0.6" d="M89.5 49C89.5 37.7 85.7 26.9 79.3 18.4C75.2 12.9 70 8.3 64.2 5.1C62.2 4 60.2 3.1 58.1 2.4C56.7 1.9 55.3 1.5 53.8 1.1C53.1 0.899998 52.3 0.799998 51.6 0.599998C50.1 0.299998 48.6 0.199998 47.1 0.0999985C46.3 0.0999985 45.6 0 44.8 0C44 0 43.3 -1.52737e-06 42.5 0.0999985C41 0.199998 39.5 0.399998 38 0.599998C37.3 0.699998 36.5 0.899998 35.8 1.1C34.3 1.4 32.9 1.9 31.5 2.4C30.1 2.9 28.7 3.5 27.4 4.1C11.3 11.8 0 29.6 0 49C0 64.1 6.9 77 17.6 85C17.9 85.2 18.2 85.4 18.5 85.7C21.2 87.6 24.2 89.3 27.3 90.6C28.6 91.1 30 91.6 31.4 92.1C32.8 92.5 34.2 92.9 35.7 93.2C36.4 93.3 37.2 93.5 37.9 93.6C39.4 93.8 40.9 94 42.4 94C43.2 94 43.9 94.1 44.7 94.1C45.5 94.1 46.2 94.1 47 94C48.5 93.9 50 93.8 51.5 93.6C52.2 93.5 53 93.4 53.7 93.2C55.2 92.9 56.6 92.6 58 92.1C60.1 91.5 62.1 90.7 64.1 89.8C70 87.1 75.1 83.1 79.2 78.1C80.1 77 81 75.9 81.8 74.7C86.7 67.4 89.5 58.7 89.5 49Z" fill="url(#paint1_radial_191_1220)"/>
<path d="M110.3 46.0001C117.6 67.7001 107.3 90.7001 87.3001 97.5001C67.3001 104.3 45.1001 92.2001 37.8001 70.5001C30.5001 48.8001 94.6001 20.4001 104.6 34.8001C107 38.1001 108.9 41.9001 110.3 46.0001Z" fill="#935503"/>
<g opacity="0.6">
<path d="M78.1 84.6001C83.5 92.7001 87.9 95.4001 90.7 96.2001C92.1 95.6001 93.4 94.8001 94.7 94.0001C84.1 93.3001 78.1 84.6001 78.1 84.6001Z" fill="#C79452"/>
<path d="M84.6 98.3003C68.9 99.1003 56 88.3003 56 88.3003C63 95.5003 70.8 98.4003 77.1 99.4003C79.6 99.3003 82.1 98.9003 84.6 98.3003Z" fill="#C79452"/>
<path d="M103.2 86.7001C104.1 85.6001 105 84.5001 105.7 83.4001C104.7 75.6001 100.5 69.6001 100.5 69.6001C103.1 77.3001 103.5 83.0001 103.2 86.7001Z" fill="#C79452"/>
<path d="M109 54.7002C109 54.7002 111.5 60.3002 112 67.8002C112.2 66.5002 112.4 65.2002 112.5 63.8002C111.9 60.9002 110.8 57.8002 109 54.7002Z" fill="#C79452"/>
</g>
<path d="M105.7 36.3002C112.9 49.8002 103.8 68.8002 85.3 78.7002C66.8 88.6002 45.9 85.7002 38.7 72.2002C31.5 58.7002 40.6 39.7002 59.1 29.8002C76.3 20.6002 95.6 22.5002 104 33.7002C104.6 34.5002 105.2 35.4002 105.7 36.3002Z" fill="#AD7832"/>
<path d="M84.1461 76.5882C101.039 67.5408 109.387 50.2215 102.79 37.9044C96.1935 25.5874 77.1512 22.9369 60.2579 31.9843C43.3645 41.0318 35.0174 58.3511 41.6139 70.6682C48.2105 82.9852 67.2528 85.6357 84.1461 76.5882Z" fill="white"/>
<path opacity="0.4" d="M46.4 58.8002C46.4 58.8002 46.4 62.0002 46.3 62.6002C46.2 63.3002 47.2 66.8002 47.2 67.5002C47.2 68.2002 49.1 71.1002 49.5 71.3002C49.9 71.6002 52.8 74.5002 53.2 74.5002C53.6 74.5002 56.9 74.1002 57.2 74.5002C57.5 74.9002 59.7 75.7002 60.1 75.4002C60.5 75.1002 62.9 74.2002 62.9 74.2002C62.9 74.2002 68.5 75.0002 69.9 74.7002C71.4 74.4002 75.5 72.7002 76.1 72.2002C76.8 71.7002 78.9 71.4002 80.1 71.0002C81.3 70.6002 85.5 68.5002 85.8 67.4002C86.1 66.3002 89 64.2002 89.8 63.4002C90.6 62.6002 93 59.8002 92.8 59.2002C92.7 58.5002 92.7 57.9002 93.2 57.2002C93.7 56.5002 98.4 52.4002 98.2 50.7002C98.1 49.0002 97.1 48.7002 97.3 47.5002C97.4 46.3002 98.9 44.1002 98.8 43.0002C98.7 41.9002 95.1 38.2002 94.6 37.6002C94.1 36.9002 91 34.6002 90.2 34.7002C89.4 34.8002 88.3 34.8002 87.8 34.4002C87.3 34.0002 86.5 33.7002 85.4 33.7002C84.3 33.7002 78.4 34.4002 76.1 34.0002C73.8 33.6002 68.9 34.5002 67.7 35.5002C66.5 36.4002 61.5 39.7002 60 40.9002C58.5 42.1002 55.6 43.8002 54.7 44.7002C53.8 45.6002 52.7 46.6002 51.9 47.9002C51.1 49.2002 48.9 52.4002 48.2 53.2002C47.5 54.0002 47.1 56.2002 46.7 56.8002C46.4 57.5002 46.4 58.8002 46.4 58.8002Z" fill="url(#paint2_linear_191_1220)"/>
<defs>
<linearGradient id="paint0_linear_191_1220" x1="44.779" y1="95.1698" x2="44.779" y2="-7.8621" gradientUnits="userSpaceOnUse">
<stop offset="0.285" stop-color="white" stop-opacity="0"/>
<stop offset="0.9322" stop-color="white" stop-opacity="0.9051"/>
<stop offset="1" stop-color="white"/>
</linearGradient>
<radialGradient id="paint1_radial_191_1220" cx="0" cy="0" r="1" gradientUnits="userSpaceOnUse" gradientTransform="translate(78.0203 69.298) scale(57.6871)">
<stop/>
<stop offset="1" stop-color="#242422" stop-opacity="0"/>
</radialGradient>
<linearGradient id="paint2_linear_191_1220" x1="96.1797" y1="73.7118" x2="38.1467" y2="27.9551" gradientUnits="userSpaceOnUse">
<stop offset="0.0860269" stop-color="#787878"/>
<stop offset="0.0963831" stop-color="#7A7A7A"/>
<stop offset="0.3102" stop-color="#AAAAAA"/>
<stop offset="0.5139" stop-color="#CFCFCF"/>
<stop offset="0.7024" stop-color="#E9E9E9"/>
<stop offset="0.8701" stop-color="#F9F9F9"/>
<stop offset="1" stop-color="white"/>
</linearGradient>
</defs>
</svg>
