<svg width="115" height="85" viewBox="0 0 115 85" fill="none" xmlns="http://www.w3.org/2000/svg">
<path d="M82.018 0.962264C80.418 -0.937736 76.818 0.56227 76.818 0.56227C77.518 2.26227 79.318 8.86226 79.318 8.86226L81.318 8.76228C80.918 2.16228 82.018 0.962264 82.018 0.962264Z" fill="#803219"/>
<path d="M80.118 7.26232C80.118 7.26232 116.618 -0.037693 114.718 34.0623C112.718 71.0623 86.818 76.4623 76.818 75.9623C66.818 75.4623 41.618 67.6623 43.118 30.5623C44.618 -3.53769 80.118 7.26232 80.118 7.26232Z" fill="#FF8A14"/>
<path opacity="0.4" d="M80.118 7.26232C80.118 7.26232 116.618 -0.037693 114.718 34.0623C112.718 71.0623 86.818 76.4623 76.818 75.9623C66.818 75.4623 41.618 67.6623 43.118 30.5623C44.618 -3.53769 80.118 7.26232 80.118 7.26232Z" fill="url(#paint0_linear_191_1222)"/>
<path opacity="0.6" d="M80.118 7.26232C80.118 7.26232 116.618 -0.037693 114.718 34.0623C112.718 71.0623 86.818 76.4623 76.818 75.9623C66.818 75.4623 41.618 67.6623 43.118 30.5623C44.618 -3.53769 80.118 7.26232 80.118 7.26232Z" fill="url(#paint1_radial_191_1222)"/>
<path d="M34.418 8.76232C32.718 6.96232 29.218 8.66232 29.218 8.66232C30.018 10.3623 32.118 16.8623 32.118 16.8623L34.118 16.6623C33.418 10.0623 34.418 8.76232 34.418 8.76232Z" fill="#803219"/>
<path d="M33.118 16.0626C33.118 16.0626 -3.78199 11.1626 0.318006 45.0626C4.71801 81.8626 30.918 85.5625 40.918 84.3625C50.918 83.2625 75.518 73.7625 71.618 36.9625C67.918 3.06255 33.118 16.0626 33.118 16.0626Z" fill="#FF962B"/>
<path opacity="0.4" d="M33.118 16.0626C33.118 16.0626 -3.78199 11.1626 0.318006 45.0626C4.71801 81.8626 30.918 85.5625 40.918 84.3625C50.918 83.2625 75.518 73.7625 71.618 36.9625C67.918 3.06255 33.118 16.0626 33.118 16.0626Z" fill="url(#paint2_linear_191_1222)"/>
<path d="M33.3179 17.6623C33.3179 17.6623 -1.78208 13.0623 2.11792 45.2623C6.31792 80.2623 31.2179 83.7623 40.7179 82.6623C50.2179 81.5623 73.7179 72.5623 69.9179 37.4623C66.4179 5.26227 33.3179 17.6623 33.3179 17.6623Z" fill="#FFC545"/>
<path opacity="0.6" d="M34.018 24.0625C34.018 24.0625 58.218 30.7625 60.318 48.6625C62.518 68.1625 40.318 79.0625 40.318 79.0625C40.318 79.0625 16.218 73.4625 14.018 53.9625C11.918 36.0625 34.018 24.0625 34.018 24.0625Z" fill="#F7EAB2"/>
<path d="M35.018 32.9624C35.018 32.9624 23.618 43.1624 24.818 53.4624C26.118 64.6624 39.118 68.7624 39.118 68.7624C39.118 68.7624 50.818 61.7624 49.618 50.5624C48.418 40.3624 35.018 32.9624 35.018 32.9624Z" fill="#8F3908"/>
<path opacity="0.8" d="M35.018 32.9624C35.018 32.9624 23.618 43.1624 24.818 53.4624C26.118 64.6624 39.118 68.7624 39.118 68.7624C39.118 68.7624 50.818 61.7624 49.618 50.5624C48.418 40.3624 35.018 32.9624 35.018 32.9624Z" fill="url(#paint3_linear_191_1222)"/>
<defs>
<linearGradient id="paint0_linear_191_1222" x1="76.3879" y1="84.9545" x2="80.7913" y2="-5.54115" gradientUnits="userSpaceOnUse">
<stop offset="0.285" stop-color="white" stop-opacity="0"/>
<stop offset="0.9543" stop-color="white" stop-opacity="0.9361"/>
<stop offset="1" stop-color="white"/>
</linearGradient>
<radialGradient id="paint1_radial_191_1222" cx="0" cy="0" r="1" gradientUnits="userSpaceOnUse" gradientTransform="translate(37.6068 46.079) rotate(-5.57154) scale(47.6936 49.1984)">
<stop/>
<stop offset="0.3044" stop-color="#0C0C0B" stop-opacity="0.6956"/>
<stop offset="1" stop-color="#242422" stop-opacity="0"/>
</radialGradient>
<linearGradient id="paint2_linear_191_1222" x1="41.9461" y1="93.3805" x2="31.6812" y2="3.36116" gradientUnits="userSpaceOnUse">
<stop offset="0.285" stop-color="white" stop-opacity="0"/>
<stop offset="0.9543" stop-color="white" stop-opacity="0.9361"/>
<stop offset="1" stop-color="white"/>
</linearGradient>
<linearGradient id="paint3_linear_191_1222" x1="40.1748" y1="77.8493" x2="35.0109" y2="32.5639" gradientUnits="userSpaceOnUse">
<stop offset="0.0484613"/>
<stop offset="0.1705" stop-opacity="0.8717"/>
<stop offset="1" stop-opacity="0"/>
</linearGradient>
</defs>
</svg>
