<svg width="108" height="80" viewBox="0 0 108 80" fill="none" xmlns="http://www.w3.org/2000/svg">
<path d="M61.4 68.2C85.5348 68.2 105.1 52.9329 105.1 34.1C105.1 15.2671 85.5348 0 61.4 0C37.2651 0 17.7 15.2671 17.7 34.1C17.7 52.9329 37.2651 68.2 61.4 68.2Z" fill="#9E6D34"/>
<path opacity="0.6" d="M61.4 68.2C85.5348 68.2 105.1 52.9329 105.1 34.1C105.1 15.2671 85.5348 0 61.4 0C37.2651 0 17.7 15.2671 17.7 34.1C17.7 52.9329 37.2651 68.2 61.4 68.2Z" fill="url(#paint0_linear_191_1216)"/>
<path opacity="0.6" d="M61.4 68.2C85.5348 68.2 105.1 52.9329 105.1 34.1C105.1 15.2671 85.5348 0 61.4 0C37.2651 0 17.7 15.2671 17.7 34.1C17.7 52.9329 37.2651 68.2 61.4 68.2Z" fill="url(#paint1_radial_191_1216)"/>
<path d="M101.9 36.2001C101.9 37.8001 103.2 39.1001 104.8 39.1001C106.4 39.1001 107.7 37.8001 107.7 36.2001V32.0001C107.7 30.4001 106.4 29.1001 104.8 29.1001C103.2 29.1001 101.9 30.4001 101.9 32.0001V36.2001Z" fill="#80582A"/>
<path d="M34.2 79.1002C53.0882 79.1002 68.4 65.1315 68.4 47.9002C68.4 30.6689 53.0882 16.7002 34.2 16.7002C15.3119 16.7002 0 30.6689 0 47.9002C0 65.1315 15.3119 79.1002 34.2 79.1002Z" fill="#9E6D34"/>
<path d="M34.2 77.1002C51.8731 77.1002 66.2 64.0269 66.2 47.9002C66.2 31.7735 51.8731 18.7002 34.2 18.7002C16.5268 18.7002 2.19995 31.7735 2.19995 47.9002C2.19995 64.0269 16.5268 77.1002 34.2 77.1002Z" fill="#B6DE3A"/>
<path d="M34.2 64.8003C34.2 64.8003 33 66.4003 33 67.1003C33 67.8003 33.7 68.5003 34.2 68.5003C34.7 68.5003 35.4 67.8003 35.4 67.1003C35.4 66.4003 34.2 64.8003 34.2 64.8003Z" fill="black"/>
<path d="M34.2 31.0003C34.2 31.0003 33 29.4003 33 28.7003C33 28.0003 33.7 27.3003 34.2 27.3003C34.7 27.3003 35.4 28.0003 35.4 28.7003C35.4 29.5003 34.2 31.0003 34.2 31.0003Z" fill="black"/>
<path d="M51.1 47.9002C51.1 47.9002 52.7 49.1002 53.4 49.1002C54.1 49.1002 54.8 48.4002 54.8 47.9002C54.8 47.4002 54.1 46.7002 53.4 46.7002C52.7 46.7002 51.1 47.9002 51.1 47.9002Z" fill="black"/>
<path d="M17.3 47.9002C17.3 47.9002 15.7 49.1002 15 49.1002C14.3 49.1002 13.6 48.4002 13.6 47.9002C13.6 47.4002 14.3 46.7002 15 46.7002C15.8 46.7002 17.3 47.9002 17.3 47.9002Z" fill="black"/>
<path d="M40.6 63.5C40.6 63.5 40.1001 65.4 40.4001 66.1C40.7001 66.8 41.6 67.2 42.1 67C42.6 66.8 42.9 65.9 42.7 65.2C42.3 64.5 40.6 63.5 40.6 63.5Z" fill="black"/>
<path d="M27.8001 32.3C27.8001 32.3 26.1001 31.3 25.8001 30.6C25.5001 29.9 25.9001 29 26.4001 28.8C26.9001 28.6 27.8001 29 28.1001 29.7C28.3001 30.4 27.8001 32.3 27.8001 32.3Z" fill="black"/>
<path d="M49.8 41.5001C49.8 41.5001 51.7001 42.0001 52.4001 41.7001C53.1001 41.4001 53.5 40.5001 53.3 40.0001C53.1 39.5001 52.2 39.2 51.5 39.4C50.8 39.8 49.8 41.5001 49.8 41.5001Z" fill="black"/>
<path d="M18.6001 54.2999C18.6001 54.2999 17.6001 55.9999 16.9001 56.2999C16.2001 56.5999 15.3001 56.1999 15.1001 55.6999C14.9001 55.1999 15.3001 54.2999 16.0001 53.9999C16.7001 53.7999 18.6001 54.2999 18.6001 54.2999Z" fill="black"/>
<path d="M46.1 59.8999C46.1 59.8999 46.4 61.8999 46.9 62.3999C47.4 62.8999 48.4 62.9999 48.8 62.5999C49.2 62.1999 49.1 61.1999 48.6 60.6999C48.1 60.0999 46.1 59.8999 46.1 59.8999Z" fill="black"/>
<path d="M22.3 36C22.3 36 20.3 35.7 19.8 35.2C19.3 34.7 19.3 33.7 19.6 33.3C20 32.9 21 33 21.5 33.5C22 34 22.3 36 22.3 36Z" fill="black"/>
<path d="M46.2 36C46.2 36 48.2 35.7 48.7 35.2C49.2 34.7 49.3 33.7 48.9 33.3C48.5 32.9 47.4999 33 46.9999 33.5C46.4999 34 46.2 36 46.2 36Z" fill="black"/>
<path d="M22.3 59.7998C22.3 59.7998 22 61.7998 21.5 62.2998C21 62.7998 20 62.7998 19.6 62.4998C19.2 62.1998 19.3 61.0998 19.8 60.5998C20.3 60.0998 22.3 59.7998 22.3 59.7998Z" fill="black"/>
<path d="M49.8 54.3998C49.8 54.3998 50.8 56.0998 51.5 56.3998C52.2 56.6998 53.1 56.2998 53.3 55.8998C53.5 55.3998 53.1001 54.4999 52.4001 54.1999C51.7001 53.8999 49.8 54.3998 49.8 54.3998Z" fill="black"/>
<path d="M18.7 41.4C18.7 41.4 16.8 41.9 16.1 41.6C15.4 41.3 15 40.4 15.2 39.9C15.4 39.4 16.3 39.1 17 39.4C17.7 39.7 18.7 41.4 18.7 41.4Z" fill="black"/>
<path d="M40.7 32.4001C40.7 32.4001 42.4 31.4001 42.7 30.7001C43 30.0001 42.6 29.1001 42.2 28.9001C41.7 28.7001 40.8 29.1001 40.5 29.8001C40.2 30.4001 40.7 32.4001 40.7 32.4001Z" fill="black"/>
<path d="M27.7 63.5C27.7 63.5 28.2 65.4 27.9 66.1C27.6 66.8 26.7 67.2 26.2 67C25.7 66.8 25.4 65.9 25.7 65.2C26 64.5 27.7 63.5 27.7 63.5Z" fill="black"/>
<path d="M34.2 40.0004L38.4999 26.4004L37.2 40.6004L46.4 29.7004L39.8 42.3004L52.4999 35.7004L41.4999 44.9004L55.7 43.6004L42.0999 47.9004L55.7 52.2004L41.4999 50.9004L52.4999 60.1004L39.8 53.5004L46.4 66.2004L37.2 55.2004L38.4999 69.4004L34.2 55.8004L29.9 69.4004L31.2 55.2004L21.9999 66.2004L28.5999 53.5004L15.9999 60.1004L26.9 50.9004L12.7 52.2004L26.3 47.9004L12.7 43.6004L26.9 44.9004L15.9999 35.7004L28.5999 42.3004L21.9999 29.7004L31.2 40.6004L29.9 26.4004L34.2 40.0004Z" fill="#F9FDB1"/>
<defs>
<linearGradient id="paint0_linear_191_1216" x1="61.3681" y1="-7.1513" x2="61.3681" y2="60.9915" gradientUnits="userSpaceOnUse">
<stop stop-color="white"/>
<stop offset="0.1438" stop-color="white" stop-opacity="0.8562"/>
<stop offset="1" stop-color="white" stop-opacity="0"/>
</linearGradient>
<radialGradient id="paint1_radial_191_1216" cx="0" cy="0" r="1" gradientUnits="userSpaceOnUse" gradientTransform="translate(33.1847 47.215) rotate(180) scale(46.5228 46.5228)">
<stop offset="0.3353"/>
<stop offset="0.6288" stop-color="#121211" stop-opacity="0.5396"/>
<stop offset="0.9729" stop-color="#242422" stop-opacity="0"/>
</radialGradient>
</defs>
</svg>
