<svg width="102" height="108" viewBox="0 0 102 108" fill="none" xmlns="http://www.w3.org/2000/svg">
<path d="M72.1237 8.20001C72.1237 9.50001 70.3237 10.6 68.1237 10.6C65.9237 10.6 64.1237 9.50001 64.1237 8.20001V3.40002C64.1237 2.10002 65.9237 0 68.1237 0C70.3237 0 72.1237 2.10002 72.1237 3.40002V8.20001Z" fill="#91750E"/>
<path d="M85.2237 17.7C83.6237 6.90001 75.9237 4.5 68.2237 4.5C60.5237 4.5 52.7237 6.90001 51.2237 17.7C49.0237 32.6 34.9237 47.9 34.9237 63.4C34.9237 81.7 41.7237 102 68.2237 102C94.7237 102 101.524 81.6 101.524 63.4C101.424 47.9 87.3237 32.6 85.2237 17.7Z" fill="#B0AD00"/>
<path opacity="0.4" d="M85.2237 17.7C83.6237 6.90001 75.9237 4.5 68.2237 4.5C60.5237 4.5 52.7237 6.90001 51.2237 17.7C49.0237 32.6 34.9237 47.9 34.9237 63.4C34.9237 81.7 41.7237 102 68.2237 102C94.7237 102 101.524 81.6 101.524 63.4C101.424 47.9 87.3237 32.6 85.2237 17.7Z" fill="url(#paint0_linear_191_1214)"/>
<path opacity="0.6" d="M85.2237 17.7C83.6237 6.90001 75.9237 4.5 68.2237 4.5C60.5237 4.5 52.7237 6.90001 51.2237 17.7C49.0237 32.6 34.9237 47.9 34.9237 63.4C34.9237 81.7 41.7237 102 68.2237 102C94.7237 102 101.524 81.6 101.524 63.4C101.424 47.9 87.3237 32.6 85.2237 17.7Z" fill="url(#paint1_radial_191_1214)"/>
<path d="M41.2237 20.3999C37.6237 10.0999 29.5237 9.19993 21.9237 10.6999C14.3237 12.1999 7.22366 15.9999 7.72366 26.8999C8.42366 41.9999 -2.47635 59.5999 0.523651 74.7999C4.02365 92.6999 14.6237 111.4 40.6237 106.4C66.6237 101.4 69.4237 80.0999 65.9237 62.0999C62.9237 46.9999 46.1237 34.6999 41.2237 20.3999Z" fill="#C0C700"/>
<path opacity="0.4" d="M41.2237 20.3999C37.6237 10.0999 29.5237 9.19993 21.9237 10.6999C14.3237 12.1999 7.22366 15.9999 7.72366 26.8999C8.42366 41.9999 -2.47635 59.5999 0.523651 74.7999C4.02365 92.6999 14.6237 111.4 40.6237 106.4C66.6237 101.4 69.4237 80.0999 65.9237 62.0999C62.9237 46.9999 46.1237 34.6999 41.2237 20.3999Z" fill="url(#paint2_linear_191_1214)"/>
<path d="M40.1236 23.7C36.8236 14.1 28.4236 9.69997 21.6236 11C14.7236 12.3 9.42365 19.4 9.92365 29.6C10.6237 43.6 0.923636 60 3.62364 74.2C6.92364 90.9 16.5236 108.4 40.0236 103.8C63.5236 99.2 65.9236 79.4 62.7236 62.7C59.9236 48.6 44.7236 37 40.1236 23.7Z" fill="#FF9A3B"/>
<path d="M27.0236 24.4999C25.6236 17.4999 21.6236 11.3999 21.6236 11.3999C21.6236 11.3999 20.9236 18.4999 22.3236 25.3999C25.7236 42.7999 11.3236 57.4999 13.9236 70.8999C16.7236 85.2999 39.1236 99.2999 39.1236 99.2999C39.1236 99.2999 54.7236 77.9999 51.8236 63.4999C49.3236 50.0999 30.4236 41.7999 27.0236 24.4999Z" fill="#FFDB74"/>
<path d="M40.0236 87.6997C40.3236 89.0997 39.4237 90.3997 38.1237 90.5997C36.8237 90.8997 35.5237 89.9997 35.3237 88.5997C35.0237 87.1997 35.9237 85.8997 37.2237 85.6997C38.4237 85.4997 39.7236 86.3997 40.0236 87.6997Z" fill="#3B0000"/>
<path d="M37.8237 87.1995C37.9237 87.6995 37.6237 88.0995 37.2237 88.1995C36.8237 88.2995 36.3237 87.9995 36.3237 87.4995C36.2237 86.9995 36.5237 86.5995 36.9237 86.4995C37.3237 86.4995 37.7237 86.7995 37.8237 87.1995Z" fill="#A8A8A8"/>
<path d="M45.2236 79.1998C45.3236 80.5998 44.3236 81.7998 43.0236 81.7998C41.7236 81.8998 40.6236 80.7998 40.5236 79.3998C40.4236 77.9998 41.4236 76.7998 42.7236 76.7998C44.0236 76.7998 45.1236 77.7998 45.2236 79.1998Z" fill="#3B0000"/>
<path d="M43.1237 78.3996C43.1237 78.8996 42.8237 79.2996 42.4237 79.2996C42.0237 79.2996 41.6237 78.9996 41.6237 78.4996C41.6237 77.9996 41.9237 77.5996 42.3237 77.5996C42.7237 77.5996 43.1237 77.9996 43.1237 78.3996Z" fill="#A8A8A8"/>
<path d="M44.3236 60.0001C44.4236 61.4001 43.4236 62.6001 42.1236 62.6001C40.8236 62.7001 39.7236 61.6001 39.6236 60.2001C39.5236 58.8001 40.5236 57.6001 41.8236 57.6001C43.0236 57.6001 44.2236 58.6001 44.3236 60.0001Z" fill="#3B0000"/>
<path d="M42.2236 59.1999C42.2236 59.6999 41.9236 60.0999 41.5236 60.0999C41.1236 60.0999 40.7236 59.7999 40.7236 59.2999C40.7236 58.7999 41.0236 58.3999 41.4236 58.3999C41.7236 58.3999 42.1236 58.7999 42.2236 59.1999Z" fill="#A8A8A8"/>
<path d="M46.7236 68.4C46.8236 69.8 45.8236 71 44.5236 71C43.2236 71.1 42.1236 70 42.0236 68.6C41.9236 67.2 42.9236 66 44.2236 66C45.5236 66 46.6236 67.1 46.7236 68.4Z" fill="#3B0000"/>
<path d="M44.6237 67.6999C44.6237 68.1999 44.3237 68.5999 43.9237 68.5999C43.5237 68.5999 43.1237 68.2999 43.1237 67.7999C43.1237 67.2999 43.4237 66.8999 43.8237 66.8999C44.2237 66.8999 44.6237 67.1999 44.6237 67.6999Z" fill="#A8A8A8"/>
<path d="M37.8236 76.4C37.9236 77.8 36.9236 79 35.6236 79C34.3236 79.1 33.2236 78 33.1236 76.6C33.0236 75.2 34.0236 74 35.3236 74C36.6236 74 37.8236 75.1 37.8236 76.4Z" fill="#3B0000"/>
<path d="M35.7236 75.6999C35.7236 76.1999 35.4236 76.5999 35.0236 76.5999C34.6236 76.5999 34.2236 76.2999 34.2236 75.7999C34.2236 75.2999 34.5236 74.8999 34.9236 74.8999C35.3236 74.8999 35.7236 75.1999 35.7236 75.6999Z" fill="#A8A8A8"/>
<path d="M34.6236 66.6998C34.7236 68.0998 33.7236 69.2998 32.4236 69.2998C31.1236 69.3998 30.0236 68.2998 29.9236 66.8998C29.8236 65.4998 30.8236 64.2998 32.1236 64.2998C33.4236 64.1998 34.5236 65.2998 34.6236 66.6998Z" fill="#3B0000"/>
<path d="M32.5237 65.8996C32.5237 66.3996 32.2237 66.7996 31.8237 66.7996C31.4237 66.7996 31.0237 66.4996 31.0237 65.9996C31.0237 65.4996 31.3237 65.0996 31.7237 65.0996C32.1237 65.0996 32.5237 65.3996 32.5237 65.8996Z" fill="#A8A8A8"/>
<path d="M23.9237 65.0001C24.0237 66.4001 23.0237 67.6001 21.7237 67.6001C20.4237 67.7001 19.3237 66.6001 19.2237 65.2001C19.1237 63.8001 20.1237 62.6001 21.4237 62.6001C22.7237 62.6001 23.8237 63.6001 23.9237 65.0001Z" fill="#3B0000"/>
<path d="M21.8237 64.3003C21.8237 64.8003 21.5237 65.2003 21.1237 65.2003C20.7237 65.2003 20.3237 64.9003 20.3237 64.4003C20.3237 63.9003 20.6237 63.5003 21.0237 63.5003C21.4237 63.4003 21.7237 63.8003 21.8237 64.3003Z" fill="#A8A8A8"/>
<path d="M26.4237 53.6998C26.5237 55.0998 25.5237 56.2998 24.2237 56.2998C22.9237 56.3998 21.8237 55.2998 21.7237 53.8998C21.6237 52.4998 22.6237 51.2998 23.9237 51.2998C25.2237 51.2998 26.4237 52.2998 26.4237 53.6998Z" fill="#3B0000"/>
<path d="M24.3237 52.9997C24.3237 53.4997 24.0237 53.8997 23.6237 53.8997C23.2237 53.8997 22.8237 53.5997 22.8237 53.0997C22.8237 52.5997 23.1237 52.1997 23.5237 52.1997C23.9237 52.1997 24.3237 52.4997 24.3237 52.9997Z" fill="#A8A8A8"/>
<path d="M33.3236 57.6998C33.4236 59.0998 32.4236 60.2998 31.1236 60.2998C29.8236 60.3998 28.7236 59.2998 28.6236 57.8998C28.5236 56.4998 29.5236 55.2998 30.8236 55.2998C32.1236 55.2998 33.3236 56.3998 33.3236 57.6998Z" fill="#3B0000"/>
<path d="M31.2236 56.9997C31.2236 57.4997 30.9236 57.8997 30.5236 57.8997C30.1236 57.8997 29.7236 57.5997 29.7236 57.0997C29.7236 56.5997 30.0236 56.1997 30.4236 56.1997C30.8236 56.1997 31.2236 56.4997 31.2236 56.9997Z" fill="#A8A8A8"/>
<path d="M30.2236 43.2999C30.3236 44.6999 29.3236 45.8999 28.0236 45.8999C26.7236 45.9999 25.6236 44.8998 25.5236 43.4998C25.4236 42.0998 26.4236 40.8999 27.7236 40.8999C29.0236 40.7999 30.1236 41.8999 30.2236 43.2999Z" fill="#3B0000"/>
<path d="M28.1237 42.4997C28.1237 42.9997 27.8237 43.3997 27.4237 43.3997C27.0237 43.3997 26.6237 43.0997 26.6237 42.5997C26.6237 42.0997 26.9237 41.6997 27.3237 41.6997C27.7237 41.6997 28.1237 41.9997 28.1237 42.4997Z" fill="#A8A8A8"/>
<path d="M32.5236 51.1C32.9236 52.4 34.3236 53.1 35.6236 52.7C36.9236 52.3 37.5236 50.9 37.1236 49.6C36.7236 48.3 35.3236 47.6 34.0236 48C32.8236 48.4 32.1236 49.8 32.5236 51.1Z" fill="#3B0000"/>
<path d="M34.2237 49.5998C34.3237 49.9998 34.8237 50.2998 35.2237 50.0998C35.6237 49.9998 35.8237 49.4998 35.7237 49.0998C35.6237 48.6998 35.1237 48.3998 34.7237 48.5998C34.3237 48.6998 34.1237 49.1998 34.2237 49.5998Z" fill="#A8A8A8"/>
<path d="M28.3236 83.2997C28.7236 84.5997 30.1237 85.2997 31.4237 84.8997C32.6237 84.4997 33.3237 83.0997 32.9237 81.7997C32.5237 80.4997 31.1236 79.7997 29.8236 80.1997C28.5236 80.5997 27.8236 81.9997 28.3236 83.2997Z" fill="#3B0000"/>
<path d="M29.9237 81.7995C30.0237 82.1995 30.5237 82.4995 30.9237 82.2995C31.3237 82.1995 31.5237 81.6995 31.4237 81.2995C31.3237 80.8995 30.8237 80.5995 30.4237 80.7995C30.0237 80.8995 29.8237 81.3995 29.9237 81.7995Z" fill="#A8A8A8"/>
<path d="M22.4236 74.8998C22.8236 76.1998 24.2236 76.8998 25.5236 76.4998C26.7236 76.0998 27.4236 74.6998 27.0236 73.3998C26.6236 72.0998 25.2236 71.3998 23.9236 71.7998C22.6236 72.1998 21.9236 73.5998 22.4236 74.8998Z" fill="#3B0000"/>
<path d="M24.1236 73.3996C24.2236 73.7996 24.7236 74.0996 25.1236 73.8996C25.5236 73.6996 25.7236 73.2996 25.6236 72.8996C25.5236 72.4996 25.0236 72.1996 24.6236 72.3996C24.1236 72.4996 23.9236 72.9996 24.1236 73.3996Z" fill="#A8A8A8"/>
<defs>
<linearGradient id="paint0_linear_191_1214" x1="68.1333" y1="105.157" x2="68.1333" y2="-2.2485" gradientUnits="userSpaceOnUse">
<stop offset="0.0984453" stop-color="white" stop-opacity="0"/>
<stop offset="1" stop-color="white"/>
</linearGradient>
<radialGradient id="paint1_radial_191_1214" cx="0" cy="0" r="1" gradientUnits="userSpaceOnUse" gradientTransform="translate(34.9496 70.5244) rotate(-19.1905) scale(38.8159 53.2097)">
<stop offset="0.0666047"/>
<stop offset="1" stop-color="#242422" stop-opacity="0"/>
</radialGradient>
<linearGradient id="paint2_linear_191_1214" x1="41.1269" y1="109.548" x2="20.6437" y2="4.11364" gradientUnits="userSpaceOnUse">
<stop offset="0.0984453" stop-color="white" stop-opacity="0"/>
<stop offset="1" stop-color="white"/>
</linearGradient>
</defs>
</svg>
