<svg width="96" height="96" viewBox="0 0 96 96" fill="none" xmlns="http://www.w3.org/2000/svg">
<path opacity="0.6" d="M49.2 25.8444C47.3 12.2444 39.5 9.44445 33.7 9.14445C34.6 1.84445 35.9 0.844444 35.9 0.844444C33.7 -1.05556 29.9 0.844444 29.9 0.844444C31.2 2.04444 31.7 7.24445 31.9 9.14445C26.1 9.34445 18.2 12.1444 16.4 25.8444C14.1 42.7444 0 42.7444 0 63.7444C0 81.1444 14.5 90.3444 32.8 90.3444C51.1 90.3444 65.6 81.1444 65.6 63.7444C65.6 42.7444 51.5 42.7444 49.2 25.8444Z" fill="url(#paint0_radial_191_1224)"/>
<path d="M49.2 25.8445C47.2 11.5445 38.7 9.14453 32.8 9.14453C26.9 9.14453 18.4 11.4445 16.4 25.8445C14.1 42.7445 0 42.7445 0 63.7445C0 81.1445 14.5 90.3445 32.8 90.3445C51.1 90.3445 65.6 81.1445 65.6 63.7445C65.6 42.7445 51.5 42.7445 49.2 25.8445Z" fill="#A6C931"/>
<path opacity="0.6" d="M49.2 25.8445C47.2 11.5445 38.7 9.14453 32.8 9.14453C26.9 9.14453 18.4 11.4445 16.4 25.8445C14.1 42.7445 0 42.7445 0 63.7445C0 81.1445 14.5 90.3445 32.8 90.3445C51.1 90.3445 65.6 81.1445 65.6 63.7445C65.6 42.7445 51.5 42.7445 49.2 25.8445Z" fill="url(#paint1_linear_191_1224)"/>
<path d="M32.1 9.94444C32.1 9.94444 31.7 2.34444 30.1 0.844444C30.1 0.844444 33.9 -1.05556 36.1 0.844444C36.1 0.844444 34.6 1.84444 33.8 9.94444C33.7 9.94444 32.9 10.2444 32.1 9.94444Z" fill="#452B12"/>
<path d="M79.5001 31.0447C77.5001 16.7447 69 14.3447 63.1 14.3447C57.2 14.3447 48.7 16.6447 46.7 31.0447C44.4 47.9447 30.3 47.9447 30.3 68.9447C30.3 86.3447 44.8 95.5447 63.1 95.5447C81.4 95.5447 95.9 86.3447 95.9 68.9447C95.8 47.9447 81.8001 47.9447 79.5001 31.0447Z" fill="#C0E642"/>
<path opacity="0.4" d="M79.5001 31.0447C77.5001 16.7447 69 14.3447 63.1 14.3447C57.2 14.3447 48.7 16.6447 46.7 31.0447C44.4 47.9447 30.3 47.9447 30.3 68.9447C30.3 86.3447 44.8 95.5447 63.1 95.5447C81.4 95.5447 95.9 86.3447 95.9 68.9447C95.8 47.9447 81.8001 47.9447 79.5001 31.0447Z" fill="url(#paint2_linear_191_1224)"/>
<path d="M78.1001 33.0447C76.3001 19.5447 68.5001 17.3447 63.1001 17.3447C57.7001 17.3447 49.9001 19.5447 48.1001 33.0447C46.0001 48.9447 33.1001 49.0447 33.1001 68.8447C33.1001 85.2447 46.4001 93.9447 63.2001 93.9447C79.9001 93.9447 93.3001 85.2447 93.3001 68.8447C93.1001 49.0447 80.2001 48.9447 78.1001 33.0447Z" fill="#FDFAEA"/>
<path d="M62.2001 15.1446C62.2001 15.1446 61.8001 7.54464 60.2001 6.04464C60.2001 6.04464 64.0001 4.14464 66.2001 6.04464C66.2001 6.04464 64.7001 7.04465 63.9001 15.1446C63.8001 15.1446 63.1001 15.4446 62.2001 15.1446Z" fill="#452B12"/>
<path opacity="0.4" d="M68.3001 51.8448C64.1001 44.2448 63.1001 18.9448 63.1001 18.9448C63.1001 18.9448 62.1001 44.1448 57.9001 51.8448C53.7001 59.4448 48.8001 62.9448 48.9001 69.9448C49.0001 76.8448 59.3001 86.7448 63.1001 91.9448C66.9001 86.7448 77.2001 76.9448 77.3001 69.9448C77.3001 62.9448 72.5001 59.5448 68.3001 51.8448Z" fill="#F0EBCA"/>
<path opacity="0.2" d="M66.2 61.2447C63.7 56.8447 63 42.3447 63 42.3447C63 42.3447 62.4 56.8447 59.8 61.2447C57.2 65.6447 54.3 67.6447 54.3 71.7447C54.3 75.7447 60.6 83.9447 63 86.9447C65.3 83.9447 71.6 75.8447 71.7 71.7447C71.8 67.6447 68.8 65.6447 66.2 61.2447Z" fill="#788F28"/>
<path d="M58.3 66.0444C58.3 66.0444 53.9 66.6444 52.4 68.6444C50.9 70.5444 52 73.7444 52 73.7444C52 73.7444 55.3 74.1444 56.9 72.3444C58.6 70.5444 58.3 66.0444 58.3 66.0444Z" fill="#452B12"/>
<path d="M67.9001 66.0444C67.9001 66.0444 72.3001 66.6444 73.8001 68.6444C75.3001 70.5444 74.2001 73.7444 74.2001 73.7444C74.2001 73.7444 70.9001 74.1444 69.3001 72.3444C67.7001 70.5444 67.9001 66.0444 67.9001 66.0444Z" fill="#452B12"/>
<defs>
<radialGradient id="paint0_radial_191_1224" cx="0" cy="0" r="1" gradientUnits="userSpaceOnUse" gradientTransform="translate(51.8301 71.4516) scale(44.0635 60.1996)">
<stop/>
<stop offset="0.0707539" stop-color="#060605" stop-opacity="0.9292"/>
<stop offset="0.3407" stop-color="#171715" stop-opacity="0.6593"/>
<stop offset="0.6357" stop-color="#21211F" stop-opacity="0.3643"/>
<stop offset="1" stop-color="#242422" stop-opacity="0"/>
</radialGradient>
<linearGradient id="paint1_linear_191_1224" x1="32.8509" y1="90.3613" x2="32.8509" y2="3.80203" gradientUnits="userSpaceOnUse">
<stop stop-color="white" stop-opacity="0"/>
<stop offset="0.8673" stop-color="white" stop-opacity="0.8673"/>
<stop offset="1" stop-color="white"/>
</linearGradient>
<linearGradient id="paint2_linear_191_1224" x1="63.0696" y1="95.5917" x2="63.0696" y2="14.3985" gradientUnits="userSpaceOnUse">
<stop stop-color="white" stop-opacity="0"/>
<stop offset="0.8673" stop-color="white" stop-opacity="0.8673"/>
<stop offset="1" stop-color="white"/>
</linearGradient>
</defs>
</svg>
