<svg width="98" height="95" viewBox="0 0 98 95" fill="none" xmlns="http://www.w3.org/2000/svg">
<path d="M67.0768 11.6C67.0768 12.9 66.0768 13.9 64.7768 13.9C63.4768 13.9 62.4768 12.9 62.4768 11.6V2.29999C62.4768 0.999988 63.4768 0 64.7768 0C66.0768 0 67.0768 0.999988 67.0768 2.29999V11.6Z" fill="#282D03"/>
<path d="M97.1767 57.0998C97.1767 77.7998 82.6768 88.3998 64.6768 88.3998C46.7768 88.3998 32.1768 77.7998 32.1768 57.0998C32.1768 36.3998 46.6768 2.2998 64.6768 2.2998C82.6768 2.2998 97.1767 36.3998 97.1767 57.0998Z" fill="#006304"/>
<path opacity="0.4" d="M97.1767 57.0998C97.1767 77.7998 82.6768 88.3998 64.6768 88.3998C46.7768 88.3998 32.1768 77.7998 32.1768 57.0998C32.1768 36.3998 46.6768 2.2998 64.6768 2.2998C82.6768 2.2998 97.1767 36.3998 97.1767 57.0998Z" fill="url(#paint0_linear_191_1227)"/>
<path opacity="0.6" d="M97.1767 57.0998C97.1767 77.7998 82.6768 88.3998 64.6768 88.3998C46.7768 88.3998 32.1768 77.7998 32.1768 57.0998C32.1768 36.3998 46.6768 2.2998 64.6768 2.2998C82.6768 2.2998 97.1767 36.3998 97.1767 57.0998Z" fill="url(#paint1_radial_191_1227)"/>
<path d="M64.8768 58.1997C67.6768 78.6997 54.7768 91.1997 36.9768 93.6997C19.1768 96.1997 3.37677 87.5997 0.476772 67.1997C-2.32323 46.6997 7.37679 10.8997 25.1768 8.3997C42.9768 5.8997 62.0768 37.6997 64.8768 58.1997Z" fill="#008505"/>
<path opacity="0.4" d="M64.8768 58.1997C67.6768 78.6997 54.7768 91.1997 36.9768 93.6997C19.1768 96.1997 3.37677 87.5997 0.476772 67.1997C-2.32323 46.6997 7.37679 10.8997 25.1768 8.3997C42.9768 5.8997 62.0768 37.6997 64.8768 58.1997Z" fill="url(#paint2_linear_191_1227)"/>
<path d="M62.6768 57.7C65.2768 76.8 53.1768 88.5 36.5768 90.8C19.9768 93.1 5.1768 85.1 2.4768 66C-0.123196 46.9 8.8768 13.4 25.4768 11.1C42.1768 8.89997 59.9768 38.6 62.6768 57.7Z" fill="#B9D156"/>
<path d="M52.2768 56.8C54.3768 71.9 46.4768 80.8999 35.4768 82.3999C24.4768 83.8999 14.3768 77.4 12.2768 62.3C10.1768 47.2 15.6768 21.1 26.7768 19.5C37.7768 18.1 50.1768 41.7 52.2768 56.8Z" fill="#EBF04A"/>
<path d="M33.944 71.4966C40.5638 70.5804 45.0095 63.1851 43.8737 54.9787C42.738 46.7723 36.4508 40.8624 29.831 41.7786C23.2111 42.6948 18.7655 50.0901 19.9012 58.2965C21.037 66.5029 27.3241 72.4128 33.944 71.4966Z" fill="#824911"/>
<path opacity="0.8" d="M43.7767 54.8996C44.8767 63.0996 40.4767 70.4996 33.8767 71.4996C27.2767 72.3996 20.9767 66.4996 19.8767 58.2996C18.7767 50.0996 23.1767 42.6996 29.7767 41.6996C36.3767 40.7996 42.6767 46.6996 43.7767 54.8996Z" fill="url(#paint3_linear_191_1227)"/>
<defs>
<linearGradient id="paint0_linear_191_1227" x1="64.6921" y1="90.2676" x2="64.6921" y2="-12.9606" gradientUnits="userSpaceOnUse">
<stop offset="0.0984453" stop-color="white" stop-opacity="0"/>
<stop offset="1" stop-color="white"/>
</linearGradient>
<radialGradient id="paint1_radial_191_1227" cx="0" cy="0" r="1" gradientUnits="userSpaceOnUse" gradientTransform="translate(45.7047 56.0261) scale(38.1442 58.5628)">
<stop offset="0.0666047"/>
<stop offset="1" stop-color="#242422" stop-opacity="0"/>
</radialGradient>
<linearGradient id="paint2_linear_191_1227" x1="37.2566" y1="95.5273" x2="23.1046" y2="-6.72632" gradientUnits="userSpaceOnUse">
<stop offset="0.0984453" stop-color="white" stop-opacity="0"/>
<stop offset="1" stop-color="white"/>
</linearGradient>
<linearGradient id="paint3_linear_191_1227" x1="34.9007" y1="78.506" x2="30.2076" y2="44.597" gradientUnits="userSpaceOnUse">
<stop offset="0.1484"/>
<stop offset="0.2577" stop-opacity="0.8717"/>
<stop offset="1" stop-opacity="0"/>
</linearGradient>
</defs>
</svg>
